<svg width="832" height="741" viewBox="0 0 832 741" fill="none" xmlns="http://www.w3.org/2000/svg">
<path d="M0.242855 396.219C0.242855 396.219 4.77326 536.914 122.216 630.697C239.658 724.481 402.443 731.199 534.212 740.124C665.981 749.049 767.18 674.433 782.417 561.676C797.654 448.919 697.114 415.832 642.381 287.451C587.648 159.069 592.565 116.921 477.04 37.9874C361.514 -40.9464 180.627 7.51357 85.8367 142.768C-8.95351 278.022 0.242855 396.219 0.242855 396.219Z" fill="#64748B" fill-opacity="0.6"/>
<path opacity="0.7" d="M0.242855 396.219C0.242855 396.219 4.77326 536.914 122.216 630.697C239.658 724.481 402.443 731.199 534.212 740.124C665.981 749.049 767.18 674.433 782.417 561.676C797.654 448.919 697.114 415.832 642.381 287.451C587.648 159.069 592.565 116.921 477.04 37.9874C361.514 -40.9464 180.627 7.51357 85.8367 142.768C-8.95351 278.022 0.242855 396.219 0.242855 396.219Z" fill="#64748B" fill-opacity="0.6"/>
<path d="M53.6985 623.418H35.9253" stroke="#263238" stroke-width="1.1133" stroke-miterlimit="10"/>
<path d="M773.608 623.418H81.8098" stroke="#263238" stroke-width="1.1133" stroke-miterlimit="10"/>
<path d="M513.322 697.724C545.817 697.724 572.16 690.478 572.16 681.539C572.16 672.6 545.817 665.353 513.322 665.353C480.827 665.353 454.485 672.6 454.485 681.539C454.485 690.478 480.827 697.724 513.322 697.724Z" fill="#263238"/>
<path d="M209.223 718.305C147.985 718.305 138.943 709.457 138.053 702.313C137.85 700.825 137.997 699.311 138.481 697.889C138.965 696.468 139.773 695.179 140.841 694.123C157.336 676.815 252.397 684.133 383.934 694.259C402.288 695.672 421.262 697.124 440.719 698.576C573.631 708.45 627.144 707.172 638.199 693.813C640.445 691.084 640.909 687.676 639.67 683.068C634.404 663.804 564.008 663.707 537.349 665.218C536.739 665.249 536.141 665.04 535.684 664.634C535.227 664.228 534.949 663.659 534.909 663.049C534.891 662.748 534.933 662.445 535.032 662.16C535.131 661.874 535.286 661.611 535.488 661.386C535.69 661.161 535.934 660.978 536.207 660.848C536.48 660.718 536.776 660.644 537.078 660.629C547.281 660.029 636.921 655.518 644.104 681.926C645.749 688.005 644.994 692.865 641.742 696.814C629.332 711.877 578.529 713.484 440.39 703.223C420.913 701.771 401.94 700.319 383.586 698.905C258.205 689.225 159.156 681.616 144.171 697.356C143.578 697.919 143.128 698.614 142.859 699.386C142.59 700.157 142.508 700.981 142.622 701.79C143.183 706.359 154.238 716.582 243.298 713.019C293.113 711.083 343.16 705.604 343.664 705.546C344.247 705.522 344.817 705.721 345.259 706.101C345.701 706.482 345.983 707.016 346.047 707.596C346.111 708.176 345.952 708.758 345.603 709.226C345.254 709.693 344.741 710.011 344.167 710.115C343.664 710.115 293.461 715.614 243.491 717.608C230.636 718.072 219.252 718.305 209.223 718.305Z" fill="white" stroke="#263238" stroke-width="1.1133" stroke-miterlimit="10"/>
<path d="M491.445 695.749C529.735 695.749 560.776 664.709 560.776 626.418C560.776 588.128 529.735 557.087 491.445 557.087C453.154 557.087 422.114 588.128 422.114 626.418C422.114 664.709 453.154 695.749 491.445 695.749Z" fill="white"/>
<mask id="mask0_162_1655" style="mask-type:luminance" maskUnits="userSpaceOnUse" x="422" y="557" width="139" height="139">
<path d="M491.445 695.749C529.735 695.749 560.776 664.708 560.776 626.418C560.776 588.127 529.735 557.087 491.445 557.087C453.154 557.087 422.114 588.127 422.114 626.418C422.114 664.708 453.154 695.749 491.445 695.749Z" fill="white"/>
</mask>
<g mask="url(#mask0_162_1655)">
<path d="M491.444 695.749C504.061 695.757 516.441 692.322 527.249 685.812C538.057 679.303 546.883 669.967 552.776 658.81C558.669 647.654 561.405 635.101 560.689 622.505C559.973 609.908 555.832 597.746 548.713 587.329C547.958 617.532 531.289 662.12 444.591 677.453C457.354 689.225 474.082 695.757 491.444 695.749Z" fill="#64748B"/>
<path opacity="0.3" d="M491.444 695.749C504.061 695.757 516.441 692.322 527.249 685.812C538.057 679.303 546.883 669.967 552.776 658.81C558.669 647.654 561.405 635.101 560.689 622.505C559.973 609.908 555.832 597.746 548.713 587.329C547.958 617.532 531.289 662.12 444.591 677.453C457.354 689.225 474.082 695.757 491.444 695.749Z" fill="white"/>
<path d="M525.558 653.6C513.195 641.572 498.181 632.613 481.725 627.444M525.558 653.6H529.237C537.396 645.511 544.424 636.354 550.127 626.379C517.659 592.072 486.081 595.576 486.081 595.576C486.081 595.576 517.756 592.072 550.224 626.418C552.005 623.223 553.496 620.222 554.715 617.454C541.202 598.519 517.93 585.605 505.442 583.669L502.538 582.972M525.558 653.6C497.04 653.194 475.356 648.779 459.151 642.874C460.196 599.08 475.82 569.904 483.991 557.552C486.593 557.25 489.211 557.095 491.832 557.087C494.213 557.087 496.536 557.222 498.86 557.435M502.538 582.972C498.062 582.159 493.483 582.093 488.986 582.779M502.538 582.972L510.805 559.739C506.898 558.623 502.901 557.852 498.86 557.435M498.86 557.435C493.497 566.09 479.692 593.737 479.692 648.586M541.221 639.486C513.612 612.575 483.139 611.162 483.139 611.162" stroke="#263238" stroke-width="1.1133" stroke-linecap="round" stroke-linejoin="round"/>
<path d="M459.073 642.991C460.118 599.197 475.742 570.02 483.913 557.668C477.52 558.385 471.258 559.988 465.307 562.431C450.634 583.957 442.345 609.193 441.396 635.227C447.082 638.262 452.991 640.858 459.073 642.991Z" stroke="#263238" stroke-width="1.1133" stroke-linecap="round" stroke-linejoin="round"/>
<path d="M465.308 562.373C453.335 567.309 442.98 575.494 435.413 586.003C427.845 596.513 423.366 608.929 422.482 621.849C428.182 627.09 434.541 631.568 441.397 635.169C442.346 609.135 450.634 583.899 465.308 562.373Z" stroke="#263238" stroke-width="1.1133" stroke-linecap="round" stroke-linejoin="round"/>
<path d="M554.619 617.454C556.128 614.12 557.421 610.693 558.491 607.193C555.597 597.318 550.552 588.207 543.719 580.514L538.356 598.403L543.622 580.514C539.346 575.716 534.427 571.534 529.005 568.084L523.099 590.175L529.043 568.181C523.375 564.555 517.203 561.783 510.728 559.953L502.461 583.186C515.123 585.005 534.697 592.459 554.619 617.454Z" stroke="#263238" stroke-width="1.1133" stroke-linecap="round" stroke-linejoin="round"/>
<path d="M495.278 679.951C503.344 675.072 511.038 669.604 518.297 663.591C522.266 660.261 529.546 653.659 529.778 653.659C529.546 653.659 543.447 637.976 548.055 629.787C548.055 629.903 550.107 626.534 549.991 626.418C549.875 626.302 551.656 623.495 551.54 623.378C552.668 621.48 553.652 619.5 554.483 617.454C555.992 614.12 557.285 610.693 558.355 607.193C560.204 613.52 561.143 620.078 561.143 626.67C561.143 627.754 561.143 628.683 561.143 629.69C531.869 670.793 509.314 688.411 495.123 696.136C493.98 696.136 492.819 696.136 491.638 696.136C484.538 696.137 477.481 695.053 470.709 692.922C479.142 689.076 487.345 684.745 495.278 679.951ZM495.278 679.951H495.781" stroke="#263238" stroke-width="1.1133" stroke-linecap="round" stroke-linejoin="round"/>
<path d="M561.143 629.689C531.87 670.792 509.314 688.41 495.239 695.961C512.5 695.092 528.816 687.82 541.003 675.566C553.189 663.311 560.37 646.954 561.143 629.689Z" stroke="#263238" stroke-width="1.1133" stroke-linecap="round" stroke-linejoin="round"/>
<path d="M437.467 669.961C446.057 680.76 457.671 688.754 470.825 692.923C479.258 689.076 487.462 684.745 495.394 679.951C478.86 683.01 452.994 675.421 437.467 669.961Z" stroke="#263238" stroke-width="1.1133" stroke-linecap="round" stroke-linejoin="round"/>
<path d="M495.394 679.95C503.46 675.071 511.154 669.603 518.414 663.59C468.482 668.701 437.679 653.232 424.592 644.442C427.062 653.751 431.447 662.442 437.466 669.96C452.994 675.42 478.86 683.009 495.394 679.95Z" stroke="#263238" stroke-width="1.1133" stroke-linecap="round" stroke-linejoin="round"/>
<path d="M525.558 653.639H529.237C525.965 656.93 522.383 660.26 518.414 663.59C468.483 668.702 437.68 653.232 424.592 644.481C423.064 638.68 422.29 632.707 422.288 626.708C422.288 625.101 422.365 623.533 422.481 621.945C426.702 625.914 435.279 634.782 459.073 643.029C475.356 648.818 497.04 653.232 525.558 653.639ZM525.558 653.639C525.829 653.891 526.1 654.142 526.352 654.413" stroke="#263238" stroke-width="1.1133" stroke-linecap="round" stroke-linejoin="round"/>
</g>
<path d="M491.445 695.749C529.735 695.749 560.776 664.709 560.776 626.418C560.776 588.128 529.735 557.087 491.445 557.087C453.154 557.087 422.114 588.128 422.114 626.418C422.114 664.709 453.154 695.749 491.445 695.749Z" stroke="#263238" stroke-width="1.1133" stroke-linecap="round" stroke-linejoin="round"/>
<path d="M619.148 507.931C619.148 507.931 614.405 492.539 600.581 487.002C590.901 483.13 579.923 484.175 569.952 485.899C551.405 489.132 535.219 496.508 517.678 502.8C517.678 502.8 525.19 500.032 555.993 515.056C567.339 520.574 580.31 524.872 593.282 524.581C603.679 524.349 619.671 521.367 619.148 507.931Z" fill="#64748B"/>
<path d="M620.813 462.685C620.813 462.685 620.813 446.558 609.197 437.284C601.104 430.818 590.223 428.591 580.156 427.371C561.453 425.106 543.835 427.487 525.171 428.436C525.171 428.436 533.167 427.971 558.317 451.243C567.591 459.801 578.781 467.661 591.23 471.127C601.259 473.915 617.406 475.696 620.813 462.685Z" fill="#64748B"/>
<path d="M652.584 522.53C652.584 522.53 640.019 512.443 639.98 497.554C639.98 487.196 644.956 477.303 650.241 468.687C660.076 452.618 672.893 440.305 685.245 426.268C685.245 426.268 679.902 432.231 682.496 466.403C683.464 478.987 682.651 492.637 677.598 504.582C673.629 514.185 664.975 527.951 652.584 522.53Z" fill="#64748B"/>
<path d="M697.114 547.272C697.114 547.272 695.333 531.261 705.827 520.69C713.106 513.352 723.658 509.868 733.474 507.506C751.789 503.091 769.562 503.42 788.206 502.201C788.206 502.201 780.23 502.646 757.926 528.667C749.717 538.347 739.514 547.35 727.491 552.248C717.908 556.178 702.071 559.799 697.114 547.272Z" fill="#64748B"/>
<path d="M694.268 490.177C694.268 490.177 678.295 487.989 670.628 475.23C665.285 466.363 664.491 455.289 664.588 445.182C664.781 426.364 669.467 409.191 672.855 390.817C672.855 390.817 671.325 398.678 691.112 426.654C698.392 436.973 704.664 449.093 706.6 461.949C707.975 472.268 707.607 488.512 694.268 490.177Z" fill="#64748B"/>
<path d="M740.23 461.505C740.23 461.505 751.711 472.812 766.503 471.185C776.784 470.004 786.038 463.867 793.976 457.633C808.768 446.016 819.513 431.805 832 417.924C832 417.924 826.715 423.906 792.466 425.32C779.862 425.842 766.406 428.224 755.119 434.651C746.058 439.724 733.416 449.927 740.23 461.505Z" fill="#64748B"/>
<path d="M726.93 450.333C726.93 450.333 742.961 451.94 753.415 441.349C760.695 433.973 764.064 423.402 766.329 413.547C770.55 395.213 770.046 377.42 771.053 358.776C771.053 358.776 770.705 366.753 744.897 389.327C735.41 397.633 726.407 407.933 721.664 419.995C717.811 429.694 714.345 445.57 726.93 450.333Z" fill="#64748B"/>
<path d="M669.68 606.4L641.994 538.27L610.068 459.491" stroke="#263238" stroke-width="1.1133" stroke-linecap="round" stroke-linejoin="round"/>
<path d="M676.069 594.687L703.735 499.955L733.551 441.408" stroke="#263238" stroke-width="1.1133" stroke-linecap="round" stroke-linejoin="round"/>
<path d="M686.698 557.436L714.384 541.464" stroke="#263238" stroke-width="1.1133" stroke-linecap="round" stroke-linejoin="round"/>
<path d="M703.735 499.955L689.892 469.075" stroke="#263238" stroke-width="1.1133" stroke-linecap="round" stroke-linejoin="round"/>
<path d="M721.063 469.229L754.829 454.166" stroke="#263238" stroke-width="1.1133" stroke-linecap="round" stroke-linejoin="round"/>
<path d="M647.318 551.048L659.031 504.214" stroke="#263238" stroke-width="1.1133" stroke-linecap="round" stroke-linejoin="round"/>
<path d="M631.791 515.443L604.744 501.02" stroke="#263238" stroke-width="1.1133" stroke-linecap="round" stroke-linejoin="round"/>
<path d="M683.871 640.456H660.793C657.02 640.454 653.366 639.137 650.461 636.73C647.556 634.323 645.582 630.978 644.878 627.271L636.669 584.039H707.994L699.805 627.271C699.098 630.979 697.119 634.325 694.211 636.731C691.303 639.138 687.646 640.455 683.871 640.456Z" fill="#263238" stroke="#263238" stroke-width="1.1133" stroke-linecap="round" stroke-linejoin="round"/>
<path d="M34.3179 376.898C34.3179 371.535 36.796 367.585 42.3719 367.585C47.9478 367.585 50.5228 371.458 50.5228 376.898V395.717C50.5228 401.08 48.0446 405.029 42.3719 405.029C36.6992 405.029 34.3179 401.157 34.3179 395.717V376.898ZM36.738 395.871C36.738 399.879 38.3255 402.822 42.3719 402.822C46.4183 402.822 48.1802 399.879 48.1802 395.871V376.743C48.1802 372.735 46.5539 369.793 42.3719 369.793C38.19 369.793 36.738 372.735 36.738 376.743V395.871Z" fill="#263238"/>
<path d="M54.3369 376.898C54.3369 371.535 56.8151 367.585 62.391 367.585C67.9669 367.585 70.5419 371.458 70.5419 376.898V395.717C70.5419 401.08 68.0637 405.029 62.391 405.029C56.7183 405.029 54.3369 401.157 54.3369 395.717V376.898ZM56.757 395.871C56.757 399.879 58.3446 402.822 62.391 402.822C66.4374 402.822 68.1992 399.879 68.1992 395.871V376.743C68.1992 372.735 66.5729 369.793 62.391 369.793C58.2091 369.793 56.757 372.735 56.757 376.743V395.871Z" fill="#263238"/>
<path d="M82.1774 367.895C87.8695 367.895 90.0766 371.477 90.0766 376.84V380.847C90.0766 386.656 87.3855 389.56 81.5579 389.56H76.9694V404.719H74.5493V367.934L82.1774 367.895ZM81.5579 387.353C85.8173 387.353 87.6565 385.417 87.6565 381.002V376.685C87.6565 372.696 86.2819 370.102 82.1774 370.102H76.9694V387.353H81.5579Z" fill="#263238"/>
<path d="M109.225 376.781V377.575H106.902V376.627C106.902 372.754 105.43 369.792 101.442 369.792C97.4537 369.792 95.9629 372.638 95.9629 376.51C95.9629 385.436 109.264 385.591 109.264 395.755C109.264 401.06 106.96 404.951 101.326 404.951C95.6919 404.951 93.3879 401.079 93.3879 395.755V393.819H95.7112V395.871C95.7112 399.743 97.2214 402.647 101.268 402.647C105.314 402.647 106.844 399.801 106.844 395.871C106.844 387.023 93.5428 386.868 93.5428 376.627C93.5428 371.089 95.9629 367.527 101.287 367.469C106.611 367.411 109.225 371.477 109.225 376.781Z" fill="#263238"/>
<path d="M115.265 400.092V404.719H112.903V400.092H115.265Z" fill="#263238"/>
<path d="M121.848 400.092V404.719H119.467V400.092H121.848Z" fill="#263238"/>
<path d="M128.412 400.092V404.719H125.972V400.092H128.412Z" fill="#263238"/>
<path d="M42.1008 421.466C47.7928 421.466 50 425.029 50 430.392V434.399C50 440.207 47.3088 443.131 41.4812 443.131H36.9121V458.271H34.4727V421.486L42.1008 421.466ZM41.4812 440.827C45.7406 440.827 47.5799 438.891 47.5799 434.457V430.14C47.5799 426.152 46.2053 423.577 42.1008 423.577H36.9121V440.827H41.4812Z" fill="#263238"/>
<path d="M56.4669 450.082L54.6276 458.233H52.4011L60.4358 421.447H64.0176L72.2265 458.233H69.8258L67.8897 450.082H56.4669ZM56.8347 447.972H67.5606L62.0815 424.197L56.8347 447.972Z" fill="#263238"/>
<path d="M91.5484 430.449V433.179H89.1864V430.294C89.1864 426.422 87.6763 423.343 83.6105 423.343C79.5448 423.343 78.054 426.344 78.054 430.294V449.442C78.054 453.314 79.5641 456.315 83.6105 456.315C87.6569 456.315 89.1864 453.372 89.1864 449.442V441.484H84.3462V439.277H91.5484V449.267C91.5484 454.592 89.2251 458.58 83.6105 458.58C77.9959 458.58 75.6726 454.592 75.6726 449.267V430.449C75.6726 425.144 77.9765 421.136 83.6105 421.136C89.2445 421.136 91.5484 425.144 91.5484 430.449Z" fill="#263238"/>
<path d="M108.063 438.465V440.673H98.0148V456.026H110.115V458.233H95.5947V421.447H110.115V423.654H98.0148V438.465H108.063Z" fill="#263238"/>
<path d="M124.423 458.271H122.216V421.486H125.372L136.408 452.463V421.486H138.615V458.271H135.943L124.327 425.358L124.423 458.271Z" fill="#263238"/>
<path d="M142.622 430.449C142.622 425.086 145.081 421.136 150.657 421.136C156.233 421.136 158.808 425.008 158.808 430.449V449.267C158.808 454.63 156.349 458.58 150.657 458.58C144.965 458.58 142.622 454.708 142.622 449.267V430.449ZM145.042 449.442C145.042 453.43 146.611 456.373 150.657 456.373C154.703 456.373 156.465 453.43 156.465 449.442V430.294C156.465 426.286 154.839 423.343 150.657 423.343C146.475 423.343 145.042 426.286 145.042 430.294V449.442Z" fill="#263238"/>
<path d="M169.011 458.271V423.673H161.557V421.466H178.982V423.673H171.451V458.271H169.011Z" fill="#263238"/>
<path d="M202.04 439.395V441.602H192.534V458.271H190.114V421.486H204.093V423.693H192.476V439.414L202.04 439.395Z" fill="#263238"/>
<path d="M207.616 430.449C207.616 425.086 210.094 421.136 215.67 421.136C221.246 421.136 223.821 425.008 223.821 430.449V449.267C223.821 454.63 221.342 458.58 215.67 458.58C209.997 458.58 207.616 454.708 207.616 449.267V430.449ZM210.036 449.442C210.036 453.43 211.623 456.373 215.67 456.373C219.716 456.373 221.478 453.43 221.478 449.442V430.294C221.478 426.286 219.852 423.343 215.67 423.343C211.488 423.343 210.036 426.286 210.036 430.294V449.442Z" fill="#263238"/>
<path d="M230.133 449.385C230.133 453.257 231.604 456.374 235.65 456.374C239.697 456.374 241.168 453.334 241.168 449.385V421.466H243.434V449.268C243.434 454.534 241.226 458.581 235.689 458.581C230.152 458.581 227.79 454.534 227.79 449.268V421.466H230.21L230.133 449.385Z" fill="#263238"/>
<path d="M249.881 458.271H247.674V421.486H250.829L261.865 452.463V421.486H264.072V458.271H261.4L249.881 425.358V458.271Z" fill="#263238"/>
<path d="M276.25 421.466C281.942 421.466 284.401 425.184 284.401 430.605V449.113C284.401 454.534 281.942 458.271 276.25 458.271H268.157V421.486L276.25 421.466ZM276.25 456.064C280.354 456.064 282.058 453.276 282.058 449.23V430.508C282.058 426.461 280.335 423.673 276.25 423.673H270.616V456.064H276.25Z" fill="#263238"/>
<path d="M368.272 549.363C325.175 549.363 299.27 511.126 290.074 477.496L289.764 476.315C289.274 474.684 289.118 472.972 289.305 471.279C289.492 469.587 290.019 467.95 290.853 466.466C291.688 464.981 292.813 463.681 294.162 462.642C295.511 461.602 297.055 460.846 298.703 460.417C300.351 459.989 302.068 459.897 303.753 460.147C305.437 460.398 307.053 460.985 308.505 461.875C309.957 462.764 311.214 463.937 312.202 465.324C313.19 466.711 313.889 468.283 314.255 469.945L314.488 470.817C321.477 496.412 340.508 525.666 371.04 523.981C376.781 523.782 382.417 522.378 387.58 519.86C392.743 517.342 397.319 513.765 401.011 509.364C417.758 490.158 425.25 448.397 423.585 427.332C423.428 425.981 423.544 424.611 423.928 423.305C424.312 422 424.954 420.785 425.818 419.733C426.682 418.681 427.749 417.815 428.955 417.185C430.161 416.555 431.482 416.174 432.839 416.066C434.195 415.958 435.56 416.125 436.851 416.556C438.141 416.987 439.332 417.674 440.352 418.575C441.371 419.477 442.198 420.575 442.783 421.803C443.369 423.032 443.701 424.366 443.759 425.725C445.695 449.171 443.14 499.567 420.081 525.995C414.179 532.944 406.902 538.596 398.709 542.594C390.515 546.593 381.582 548.851 372.473 549.228C371.06 549.324 369.646 549.363 368.272 549.363Z" fill="white"/>
<mask id="mask1_162_1655" style="mask-type:luminance" maskUnits="userSpaceOnUse" x="289" y="416" width="156" height="134">
<path d="M368.271 549.363C325.174 549.363 299.269 511.125 290.073 477.496L289.763 476.315C289.273 474.684 289.117 472.971 289.305 471.279C289.492 469.586 290.018 467.949 290.853 466.465C291.687 464.981 292.813 463.68 294.161 462.641C295.51 461.602 297.055 460.845 298.703 460.417C300.351 459.988 302.068 459.896 303.752 460.147C305.436 460.397 307.053 460.985 308.504 461.874C309.956 462.764 311.214 463.937 312.202 465.324C313.19 466.71 313.888 468.282 314.255 469.945L314.487 470.816C321.476 496.411 340.508 525.665 371.04 523.981C376.781 523.782 382.416 522.378 387.579 519.859C392.743 517.341 397.319 513.765 401.01 509.363C417.757 490.158 425.25 448.396 423.585 427.332C423.427 425.98 423.544 424.611 423.927 423.305C424.311 421.999 424.954 420.784 425.818 419.733C426.681 418.681 427.748 417.814 428.955 417.184C430.161 416.554 431.482 416.174 432.838 416.066C434.195 415.958 435.559 416.124 436.85 416.555C438.141 416.986 439.332 417.673 440.351 418.575C441.37 419.477 442.197 420.574 442.783 421.803C443.368 423.031 443.7 424.365 443.759 425.725C445.695 449.171 443.139 499.567 420.081 525.994C414.179 532.943 406.902 538.595 398.708 542.594C390.515 546.592 381.582 548.851 372.472 549.227C371.059 549.324 369.646 549.363 368.271 549.363Z" fill="white"/>
</mask>
<g mask="url(#mask1_162_1655)">
<path d="M432.858 416.431C430.184 416.648 427.705 417.918 425.966 419.962C424.227 422.006 423.371 424.656 423.585 427.331C424.398 437.612 423.023 452.81 419.461 467.989C424.549 467.774 429.636 468.429 434.504 469.925C433.352 484.491 428.237 498.464 419.712 510.331C400.913 536.448 372.724 544.793 350.788 541.657C340.972 540.263 329.724 535.113 320.256 529.827C333.102 542.354 350.328 549.377 368.271 549.401C369.646 549.401 371.059 549.401 372.472 549.285C381.582 548.908 390.514 546.65 398.708 542.651C406.902 538.653 414.178 533.001 420.08 526.052C443.139 499.624 445.617 449.228 443.759 425.783C443.663 424.45 443.305 423.151 442.704 421.958C442.103 420.765 441.272 419.703 440.258 418.834C439.245 417.964 438.069 417.304 436.799 416.892C435.529 416.48 434.189 416.323 432.858 416.431Z" fill="#64748B"/>
<path opacity="0.5" d="M432.858 416.431C430.184 416.648 427.705 417.918 425.966 419.962C424.227 422.006 423.371 424.656 423.585 427.331C424.398 437.612 423.023 452.81 419.461 467.989C424.549 467.774 429.636 468.429 434.504 469.925C433.352 484.491 428.237 498.464 419.712 510.331C400.913 536.448 372.724 544.793 350.788 541.657C340.972 540.263 329.724 535.113 320.256 529.827C333.102 542.354 350.328 549.377 368.271 549.401C369.646 549.401 371.059 549.401 372.472 549.285C381.582 548.908 390.514 546.65 398.708 542.651C406.902 538.653 414.178 533.001 420.08 526.052C443.139 499.624 445.617 449.228 443.759 425.783C443.663 424.45 443.305 423.151 442.704 421.958C442.103 420.765 441.272 419.703 440.258 418.834C439.245 417.964 438.069 417.304 436.799 416.892C435.529 416.48 434.189 416.323 432.858 416.431Z" fill="white"/>
</g>
<path d="M368.272 549.363C325.175 549.363 299.27 511.126 290.074 477.496L289.764 476.315C289.274 474.684 289.118 472.972 289.305 471.279C289.492 469.587 290.019 467.95 290.853 466.466C291.688 464.981 292.813 463.681 294.162 462.642C295.511 461.602 297.055 460.846 298.703 460.417C300.351 459.989 302.068 459.897 303.753 460.147C305.437 460.398 307.053 460.985 308.505 461.875C309.957 462.764 311.214 463.937 312.202 465.324C313.19 466.711 313.889 468.283 314.255 469.945L314.488 470.817C321.477 496.412 340.508 525.666 371.04 523.981C376.781 523.782 382.417 522.378 387.58 519.86C392.743 517.342 397.319 513.765 401.011 509.364C417.758 490.158 425.25 448.397 423.585 427.332C423.428 425.981 423.544 424.611 423.928 423.305C424.312 422 424.954 420.785 425.818 419.733C426.682 418.681 427.749 417.815 428.955 417.185C430.161 416.555 431.482 416.174 432.839 416.066C434.195 415.958 435.56 416.125 436.851 416.556C438.141 416.987 439.332 417.674 440.352 418.575C441.371 419.477 442.198 420.575 442.783 421.803C443.369 423.032 443.701 424.366 443.759 425.725C445.695 449.171 443.14 499.567 420.081 525.995C414.179 532.944 406.902 538.596 398.709 542.594C390.515 546.593 381.582 548.851 372.473 549.228C371.06 549.324 369.646 549.363 368.272 549.363Z" stroke="#263238" stroke-width="1.1133" stroke-linecap="round" stroke-linejoin="round"/>
<path d="M343.412 523.168C344.438 518.425 333.093 525.84 323.587 532.752C327.103 535.723 330.888 538.361 334.894 540.631C338.282 535.114 342.425 527.737 343.412 523.168Z" fill="#64748B" stroke="#263238" stroke-width="1.1133" stroke-linecap="round" stroke-linejoin="round"/>
<path d="M368.271 549.363C369.646 549.363 371.059 549.363 372.473 549.247C376.586 549.016 380.673 548.44 384.689 547.524C379.346 540.554 371.989 531.338 369.878 530.641C367.458 529.828 362.792 541.696 360.198 548.898C362.878 549.211 365.574 549.366 368.271 549.363Z" fill="#64748B" stroke="#263238" stroke-width="1.1133" stroke-linecap="round" stroke-linejoin="round"/>
<path d="M314.488 470.816L314.255 469.945C313.889 468.282 313.19 466.711 312.202 465.324C311.214 463.937 309.957 462.764 308.505 461.874C307.053 460.985 305.437 460.397 303.753 460.147C302.068 459.897 300.351 459.988 298.703 460.417C297.055 460.846 295.511 461.602 294.162 462.641C292.813 463.681 291.688 464.981 290.853 466.465C290.019 467.949 289.492 469.587 289.305 471.279C289.118 472.971 289.274 474.684 289.764 476.315L290.074 477.496C293.302 489.306 298.26 500.573 304.788 510.932L327.846 499.954C321.8 491.055 317.284 481.206 314.488 470.816Z" fill="#64748B" stroke="#263238" stroke-width="1.1133" stroke-linecap="round" stroke-linejoin="round"/>
<path d="M420.081 525.994C421.853 523.943 423.495 521.783 424.999 519.528C417.68 517.03 406.722 513.584 402.656 513.952C397.836 514.397 404.38 529.886 407.748 537.185C412.283 533.95 416.422 530.194 420.081 525.994Z" fill="#64748B" stroke="#263238" stroke-width="1.1133" stroke-linecap="round" stroke-linejoin="round"/>
<path d="M420.488 484.62C419.713 486.169 429.181 493.062 435.57 497.495C437.596 491.465 439.226 485.308 440.448 479.064C432.704 480.613 421.243 483.11 420.488 484.62Z" fill="#64748B" stroke="#263238" stroke-width="1.1133" stroke-linecap="round" stroke-linejoin="round"/>
<path d="M443.585 455.986C444.011 450.469 444.224 445.202 444.243 440.362C437.583 444.021 429.684 449.094 429.684 452.424C429.684 455.754 437.08 456.161 443.585 455.986Z" fill="#64748B" stroke="#263238" stroke-width="1.1133" stroke-linecap="round" stroke-linejoin="round"/>
<path d="M339.346 306.192C339.346 306.192 320.547 360.635 330.673 402.996C333.672 415.392 339.494 426.928 347.685 436.704C355.876 446.48 366.214 454.232 377.894 459.355C377.894 459.355 350.421 469.035 356.597 483.924C362.773 498.812 386.451 489.229 394.176 484.408C401.901 479.587 411.601 465.144 412.956 455.502C413.817 450.576 414.142 445.571 413.924 440.575C413.924 440.575 445.23 437.206 466.43 419.859C466.43 419.859 485.23 434.786 498.724 431.901C512.219 429.017 531.483 404.913 529.546 383.248C527.61 361.583 515.123 361.603 507.495 364.894C503.535 366.391 499.924 368.684 496.885 371.631C496.885 371.631 507.959 358.079 496.885 339.357C493.616 333.866 489.141 329.19 483.797 325.685C478.454 322.179 472.382 319.936 466.043 319.125C466.043 319.125 460.235 288.283 442.926 276.725C425.618 265.167 363.915 253.202 339.346 306.192Z" fill="white"/>
<mask id="mask2_162_1655" style="mask-type:luminance" maskUnits="userSpaceOnUse" x="327" y="266" width="203" height="226">
<path d="M339.346 306.192C339.346 306.192 320.547 360.635 330.673 402.996C333.672 415.392 339.494 426.928 347.685 436.704C355.876 446.48 366.214 454.232 377.894 459.355C377.894 459.355 350.421 469.035 356.597 483.924C362.773 498.812 386.451 489.229 394.176 484.408C401.901 479.587 411.601 465.144 412.956 455.502C413.817 450.576 414.142 445.571 413.924 440.575C413.924 440.575 445.23 437.206 466.43 419.859C466.43 419.859 485.23 434.786 498.724 431.901C512.219 429.017 531.483 404.913 529.546 383.248C527.61 361.583 515.123 361.603 507.495 364.894C503.535 366.391 499.924 368.684 496.885 371.631C496.885 371.631 507.959 358.079 496.885 339.357C493.616 333.866 489.141 329.19 483.797 325.685C478.454 322.179 472.382 319.936 466.043 319.125C466.043 319.125 460.235 288.283 442.926 276.725C425.618 265.167 363.915 253.202 339.346 306.192Z" fill="white"/>
</mask>
<g mask="url(#mask2_162_1655)">
<path d="M482.481 324.914C473.543 339.823 461.175 352.382 446.406 361.549C431.636 370.715 414.891 376.222 397.564 377.614C359.23 380.982 337.74 373.432 327.866 368.185C329.064 347.121 332.968 326.298 339.482 306.23C364.051 253.24 425.715 265.283 443.062 276.841C460.409 288.399 466.179 319.241 466.179 319.241C471.951 319.965 477.506 321.898 482.481 324.914ZM507.495 364.894C503.535 366.391 499.924 368.684 496.885 371.631C499.23 368.399 500.776 364.657 501.396 360.712C475.356 373.683 477.389 401.369 474.156 401.369C470.167 401.369 468.192 387.449 468.192 387.449C468.192 387.449 463.217 407.332 433.343 421.272C403.469 435.212 369.685 424.254 369.685 424.254C369.685 424.254 376.655 440.168 358.746 438.174C353.72 437.693 348.901 435.934 344.748 433.063C353.336 444.512 364.742 453.543 377.855 459.277C377.855 459.277 350.382 468.958 356.558 483.846C362.734 498.734 386.432 489.151 394.138 484.33C401.843 479.509 411.562 465.066 412.917 455.424C413.779 450.498 414.103 445.493 413.886 440.497C413.886 440.497 445.192 437.128 466.392 419.781C466.392 419.781 485.191 434.708 498.686 431.824C512.18 428.939 531.444 404.835 529.508 383.17C527.572 361.505 515.123 361.602 507.495 364.894Z" fill="#64748B"/>
<path opacity="0.5" d="M482.481 324.914C473.543 339.823 461.175 352.382 446.406 361.549C431.636 370.715 414.891 376.222 397.564 377.614C359.23 380.982 337.74 373.432 327.866 368.185C329.064 347.121 332.968 326.298 339.482 306.23C364.051 253.24 425.715 265.283 443.062 276.841C460.409 288.399 466.179 319.241 466.179 319.241C471.951 319.965 477.506 321.898 482.481 324.914ZM507.495 364.894C503.535 366.391 499.924 368.684 496.885 371.631C499.23 368.399 500.776 364.657 501.396 360.712C475.356 373.683 477.389 401.369 474.156 401.369C470.167 401.369 468.192 387.449 468.192 387.449C468.192 387.449 463.217 407.332 433.343 421.272C403.469 435.212 369.685 424.254 369.685 424.254C369.685 424.254 376.655 440.168 358.746 438.174C353.72 437.693 348.901 435.934 344.748 433.063C353.336 444.512 364.742 453.543 377.855 459.277C377.855 459.277 350.382 468.958 356.558 483.846C362.734 498.734 386.432 489.151 394.138 484.33C401.843 479.509 411.562 465.066 412.917 455.424C413.779 450.498 414.103 445.493 413.886 440.497C413.886 440.497 445.192 437.128 466.392 419.781C466.392 419.781 485.191 434.708 498.686 431.824C512.18 428.939 531.444 404.835 529.508 383.17C527.572 361.505 515.123 361.602 507.495 364.894Z" fill="white"/>
<path d="M414.021 440.613C403.631 440.89 393.315 438.781 383.867 434.448C374.419 430.115 366.09 423.673 359.521 415.619" stroke="#263238" stroke-width="1.1133" stroke-linecap="round" stroke-linejoin="round"/>
</g>
<path d="M339.346 306.192C339.346 306.192 320.547 360.635 330.673 402.996C333.672 415.392 339.494 426.928 347.685 436.704C355.876 446.48 366.214 454.232 377.894 459.355C377.894 459.355 350.421 469.035 356.597 483.924C362.773 498.812 386.451 489.229 394.176 484.408C401.901 479.587 411.601 465.144 412.956 455.502C413.817 450.576 414.142 445.571 413.924 440.575C413.924 440.575 445.23 437.206 466.43 419.859C466.43 419.859 485.23 434.786 498.724 431.901C512.219 429.017 531.483 404.913 529.546 383.248C527.61 361.583 515.123 361.603 507.495 364.894C503.535 366.391 499.924 368.684 496.885 371.631C496.885 371.631 507.959 358.079 496.885 339.357C493.616 333.866 489.141 329.19 483.797 325.685C478.454 322.179 472.382 319.936 466.043 319.125C466.043 319.125 460.235 288.283 442.926 276.725C425.618 265.167 363.915 253.202 339.346 306.192Z" stroke="#263238" stroke-width="1.1133" stroke-linecap="round" stroke-linejoin="round"/>
<path d="M496.885 371.708C496.885 371.708 486.779 378.465 481.958 399.181" stroke="#263238" stroke-width="1.1133" stroke-linecap="round" stroke-linejoin="round"/>
<path d="M515.452 380.576C514.271 384.1 511.038 386.21 508.25 385.261C505.462 384.312 504.184 380.692 505.365 377.168C506.546 373.645 509.779 371.534 512.567 372.483C515.355 373.432 516.652 377.052 515.452 380.576Z" fill="white" stroke="#263238" stroke-width="1.1133" stroke-linecap="round" stroke-linejoin="round"/>
<path d="M525.423 386.849C524.242 390.373 521.008 392.483 518.221 391.535C515.433 390.586 514.135 386.965 515.336 383.442C516.536 379.918 519.75 377.808 522.538 378.757C525.326 379.705 526.623 383.326 525.423 386.849Z" fill="white" stroke="#263238" stroke-width="1.1133" stroke-linecap="round" stroke-linejoin="round"/>
<path d="M527.553 396.239C527.166 396.887 526.604 397.412 525.931 397.753C525.258 398.094 524.502 398.238 523.75 398.166C522.999 398.095 522.284 397.812 521.687 397.35C521.09 396.889 520.636 396.267 520.379 395.558C520.121 394.849 520.07 394.081 520.231 393.344C520.392 392.607 520.759 391.93 521.29 391.393C521.82 390.856 522.491 390.481 523.226 390.311C523.962 390.14 524.73 390.182 525.442 390.431C526.47 390.945 527.262 391.834 527.655 392.914C528.048 393.995 528.011 395.184 527.553 396.239Z" fill="white" stroke="#263238" stroke-width="1.1133" stroke-linecap="round" stroke-linejoin="round"/>
<path d="M514.833 409.133C511.348 415.425 504.378 418.213 499.247 415.367C494.117 412.521 492.8 405.145 496.285 398.852C499.77 392.56 506.74 389.772 511.871 392.618C517.001 395.464 518.318 402.841 514.833 409.133Z" fill="white" stroke="#263238" stroke-width="1.1133" stroke-linecap="round" stroke-linejoin="round"/>
<path d="M377.893 459.394C384.384 462.414 391.761 462.931 398.609 460.846" stroke="#263238" stroke-width="1.1133" stroke-linecap="round" stroke-linejoin="round"/>
<path d="M356.694 483.962C356.694 483.962 358.63 475.773 370.653 470.003" stroke="#263238" stroke-width="1.1133" stroke-linecap="round" stroke-linejoin="round"/>
<path d="M368.736 491.203C368.736 491.203 373.557 479.587 381.747 474.34" stroke="#263238" stroke-width="1.1133" stroke-linecap="round" stroke-linejoin="round"/>
<path d="M178.749 357.924C176.701 356.29 175.068 354.194 173.985 351.808C172.902 349.423 172.398 346.815 172.515 344.197V298.293H54.1045C51.2121 298.401 48.3304 297.883 45.657 296.773C42.9836 295.664 40.5817 293.99 38.6159 291.865C34.743 287.768 32.618 282.324 32.6915 276.686C32.6759 272.105 34.0238 267.623 36.5637 263.811L149.979 85.5762C158.498 72.4238 169.817 65.8476 183.938 65.8476C191.529 65.5897 198.942 68.1872 204.712 73.1272C210.249 77.9674 213.018 85.1632 213.018 94.7145V267.974H243.143C245.224 267.848 247.306 268.182 249.244 268.952C251.181 269.721 252.925 270.908 254.353 272.427C256.9 275.412 258.299 279.209 258.299 283.133C258.299 287.058 256.9 290.854 254.353 293.84C252.925 295.359 251.181 296.545 249.244 297.315C247.306 298.084 245.224 298.418 243.143 298.293H212.805V344.197C212.93 346.795 212.452 349.386 211.407 351.768C210.362 354.15 208.78 356.257 206.783 357.924C202.886 361.191 197.948 362.956 192.863 362.9C187.722 362.94 182.728 361.18 178.749 357.924ZM172.437 267.974V108.441L73.1361 267.974H172.437Z" fill="#263238"/>
<path d="M343.064 358.853C331.458 353.788 321.181 346.108 313.035 336.414C304.854 326.171 298.465 314.617 294.139 302.242C289.237 288.873 285.79 275.015 283.859 260.907C281.844 245.547 280.873 230.068 280.955 214.577C280.955 112.52 315.804 61.4912 385.503 61.4912C455.201 61.4912 489.967 112.52 489.799 214.577C489.868 229.994 488.93 245.399 486.992 260.694C485.124 274.804 481.708 288.666 476.808 302.029C472.483 314.404 466.094 325.958 457.912 336.201C449.756 345.908 439.483 353.618 427.883 358.737C414.547 364.633 400.082 367.54 385.503 367.255C370.916 367.548 356.439 364.682 343.064 358.853ZM406.103 329.56C411.934 327.072 417.227 323.476 421.688 318.97C426.204 314.161 429.917 308.657 432.685 302.668C435.738 296.323 438.208 289.713 440.061 282.92C442.014 275.519 443.437 267.988 444.321 260.384C445.366 251.994 446.063 244.308 446.412 237.326C446.76 230.343 446.928 222.76 446.915 214.577C446.915 205.993 446.747 198.068 446.412 190.802C446.076 183.535 445.347 175.739 444.224 167.414C443.26 159.816 441.805 152.288 439.868 144.878C438.035 138.153 435.565 131.618 432.491 125.362C429.703 119.468 425.983 114.062 421.475 109.351C417.041 104.936 411.777 101.442 405.986 99.0704C392.749 93.9596 378.082 93.9596 364.845 99.0704C359.097 101.413 353.871 104.875 349.472 109.254C344.998 113.945 341.287 119.308 338.475 125.149C335.374 131.349 332.934 137.858 331.196 144.568C329.306 152.023 327.883 159.588 326.936 167.22C325.814 175.662 325.084 183.522 324.749 190.802C324.413 198.081 324.239 206.006 324.226 214.577C324.226 222.747 324.4 230.362 324.749 237.422C325.097 244.483 325.788 252.227 326.82 260.655C327.713 268.257 329.137 275.788 331.08 283.191C332.907 289.982 335.351 296.592 338.379 302.939C341.118 308.891 344.798 314.363 349.279 319.144C353.706 323.621 358.968 327.186 364.767 329.638C378.018 335.032 392.852 335.032 406.103 329.638V329.56Z" fill="#263238"/>
<path d="M669.195 357.924C667.147 356.29 665.515 354.194 664.432 351.808C663.348 349.423 662.844 346.815 662.961 344.197V298.293H544.551C541.659 298.401 538.777 297.883 536.103 296.773C533.43 295.664 531.028 293.99 529.062 291.865C525.19 287.768 523.065 282.324 523.138 276.686C523.122 272.105 524.47 267.624 527.01 263.811L640.425 85.5763C648.867 72.4239 660.154 65.8477 674.287 65.8477C681.919 65.5604 689.378 68.1596 695.178 73.1273C700.715 77.9675 703.483 85.1632 703.483 94.7145V267.974H733.609C735.689 267.849 737.772 268.182 739.71 268.952C741.647 269.722 743.391 270.908 744.819 272.427C747.366 275.413 748.765 279.209 748.765 283.133C748.765 287.058 747.366 290.854 744.819 293.84C743.391 295.359 741.647 296.545 739.71 297.315C737.772 298.084 735.689 298.418 733.609 298.293H703.251V344.197C703.377 346.795 702.898 349.386 701.854 351.768C700.809 354.15 699.226 356.257 697.23 357.924C693.333 361.191 688.395 362.956 683.309 362.9C678.168 362.94 673.175 361.18 669.195 357.924ZM662.961 267.974V108.441L563.66 267.974H662.961Z" fill="#263238"/>
<path d="M300.315 278.739C300.315 278.739 280.083 307.16 277.199 336.066C274.314 364.971 277.683 384.235 286.356 391.476C295.03 398.717 303.684 395.813 308.505 389.056C313.326 382.299 305.62 358.699 305.62 358.699C305.62 358.699 313.81 336.066 326.336 320.171C338.863 304.275 341.263 301.855 341.263 301.855C341.263 301.855 319.579 277.287 300.315 278.739Z" fill="white"/>
<mask id="mask3_162_1655" style="mask-type:luminance" maskUnits="userSpaceOnUse" x="276" y="278" width="66" height="118">
<path d="M300.315 278.739C300.315 278.739 280.083 307.16 277.198 336.066C274.314 364.971 277.682 384.235 286.356 391.476C295.03 398.717 303.684 395.813 308.505 389.056C313.326 382.299 305.62 358.699 305.62 358.699C305.62 358.699 313.81 336.066 326.336 320.171C338.862 304.275 341.263 301.855 341.263 301.855C341.263 301.855 319.579 277.287 300.315 278.739Z" fill="white"/>
</mask>
<g mask="url(#mask3_162_1655)">
<path d="M300.315 278.739C295.901 285.262 291.985 292.109 288.602 299.222C298.282 303.094 313.287 311.032 322.812 325.088C323.974 323.404 325.174 321.739 326.414 320.171C338.94 304.275 341.341 301.855 341.341 301.855C341.341 301.855 319.579 277.287 300.315 278.739Z" fill="#64748B"/>
<path opacity="0.5" d="M300.315 278.739C295.901 285.262 291.985 292.109 288.602 299.222C298.282 303.094 313.287 311.032 322.812 325.088C323.974 323.404 325.174 321.739 326.414 320.171C338.94 304.275 341.341 301.855 341.341 301.855C341.341 301.855 319.579 277.287 300.315 278.739Z" fill="white"/>
</g>
<path d="M300.315 278.739C300.315 278.739 280.083 307.16 277.199 336.066C274.314 364.971 277.683 384.235 286.356 391.476C295.03 398.717 303.684 395.813 308.505 389.056C313.326 382.299 305.62 358.699 305.62 358.699C305.62 358.699 313.81 336.066 326.336 320.171C338.863 304.275 341.263 301.855 341.263 301.855C341.263 301.855 319.579 277.287 300.315 278.739Z" stroke="#263238" stroke-width="1.1133" stroke-linecap="round" stroke-linejoin="round"/>
<path d="M286.356 391.476C283.991 385.159 282.841 378.452 282.968 371.708" stroke="#263238" stroke-width="1.1133" stroke-linecap="round" stroke-linejoin="round"/>
<path d="M299.347 394.361C299.347 394.361 294.546 386.171 294.062 372.193" stroke="#263238" stroke-width="1.1133" stroke-linecap="round" stroke-linejoin="round"/>
<path d="M306.589 330.277C306.589 325.204 296.908 315.292 283.453 310.916C281.644 315.633 280.15 320.464 278.98 325.378C284.208 326.273 289.285 327.896 294.062 330.199C301.284 334.13 306.589 336.066 306.589 330.277Z" fill="#64748B" stroke="#263238" stroke-width="1.1133" stroke-linecap="round" stroke-linejoin="round"/>
<path d="M299.135 280.461C296.014 285.219 293.144 290.137 290.538 295.195C294.613 296.272 298.521 297.901 302.155 300.035C317.082 308.689 319.967 309.716 315.165 297.131C312.261 289.232 305.33 283.869 299.135 280.461Z" fill="#64748B" stroke="#263238" stroke-width="1.1133" stroke-linecap="round" stroke-linejoin="round"/>
<path d="M458.783 264.702C458.783 264.702 481.706 290.994 487.418 319.493C493.129 347.992 491.677 367.488 483.739 375.523C475.801 383.557 466.915 381.544 461.455 375.29C455.995 369.037 461.455 344.816 461.455 344.816C461.455 344.816 451.078 323.074 437.06 308.476C423.043 293.878 420.391 291.729 420.391 291.729C420.391 291.729 439.461 265.147 458.783 264.702Z" fill="white"/>
<mask id="mask4_162_1655" style="mask-type:luminance" maskUnits="userSpaceOnUse" x="420" y="264" width="71" height="117">
<path d="M458.783 264.702C458.783 264.702 481.706 290.994 487.418 319.493C493.129 347.992 491.677 367.488 483.739 375.523C475.801 383.557 466.915 381.544 461.455 375.29C455.995 369.037 461.455 344.816 461.455 344.816C461.455 344.816 451.078 323.074 437.06 308.476C423.043 293.878 420.391 291.729 420.391 291.729C420.391 291.729 439.461 265.147 458.783 264.702Z" fill="white"/>
</mask>
<g mask="url(#mask4_162_1655)">
<path d="M458.782 264.702C439.422 265.147 420.293 291.807 420.293 291.807C420.293 291.807 422.926 293.975 436.963 308.554C439.588 311.318 442.057 314.227 444.359 317.266C451.685 304.891 462.151 294.673 474.697 287.644C470.08 279.542 464.755 271.864 458.782 264.702Z" fill="#64748B"/>
<path opacity="0.5" d="M458.782 264.702C439.422 265.147 420.293 291.807 420.293 291.807C420.293 291.807 422.926 293.975 436.963 308.554C439.588 311.318 442.057 314.227 444.359 317.266C451.685 304.891 462.151 294.673 474.697 287.644C470.08 279.542 464.755 271.864 458.782 264.702Z" fill="white"/>
</g>
<path d="M458.783 264.702C458.783 264.702 481.706 290.994 487.418 319.493C493.129 347.992 491.677 367.488 483.739 375.523C475.801 383.557 466.915 381.544 461.455 375.29C455.995 369.037 461.455 344.816 461.455 344.816C461.455 344.816 451.078 323.074 437.06 308.476C423.043 293.878 420.391 291.729 420.391 291.729C420.391 291.729 439.461 265.147 458.783 264.702Z" stroke="#263238" stroke-width="1.1133" stroke-linecap="round" stroke-linejoin="round"/>
<path d="M483.739 375.523C485.474 369.013 485.96 362.233 485.171 355.542" stroke="#263238" stroke-width="1.1133" stroke-linecap="round" stroke-linejoin="round"/>
<path d="M471.077 379.666C471.077 379.666 475.085 371.05 474.194 357.091" stroke="#263238" stroke-width="1.1133" stroke-linecap="round" stroke-linejoin="round"/>
<path d="M457.602 316.608C457.118 311.555 465.772 300.752 478.744 295.156C480.988 299.669 482.928 304.326 484.552 309.096C479.447 310.519 474.561 312.637 470.032 315.388C463.255 319.938 458.183 322.3 457.602 316.608Z" fill="#64748B" stroke="#263238" stroke-width="1.1133" stroke-linecap="round" stroke-linejoin="round"/>
<path d="M460.119 266.309C463.68 270.703 467.002 275.285 470.07 280.036C466.107 281.503 462.362 283.503 458.938 285.98C444.94 296.086 442.152 297.325 445.714 284.392C447.941 276.319 454.291 270.297 460.119 266.309Z" fill="#64748B" stroke="#263238" stroke-width="1.1133" stroke-linecap="round" stroke-linejoin="round"/>
<path d="M298.418 254.15C298.418 254.15 292.455 274.266 294.701 282.456C296.947 290.645 307.363 283.211 317.798 292.136C328.234 301.061 337.895 317.17 377.41 320.151C416.925 323.133 440.778 301.817 449.045 289.89C457.312 277.964 456.499 263.811 470.651 263.076C484.804 262.34 472.897 234.751 468.425 230.279C468.425 230.279 495.995 189.292 495.995 178.856C495.995 168.421 469.916 170.647 437.912 180.347C437.912 180.347 414.06 167.666 370.827 175.12C327.595 182.574 314.933 195.255 314.933 195.255C314.933 195.255 261.265 201.954 257.548 208.653C253.83 215.351 264.885 243.715 298.418 254.15Z" fill="white"/>
<mask id="mask5_162_1655" style="mask-type:luminance" maskUnits="userSpaceOnUse" x="256" y="171" width="240" height="150">
<path d="M298.418 254.15C298.418 254.15 292.455 274.266 294.701 282.456C296.947 290.645 307.363 283.211 317.798 292.136C328.234 301.061 337.895 317.17 377.41 320.151C416.925 323.133 440.778 301.817 449.045 289.89C457.312 277.964 456.499 263.811 470.651 263.076C484.804 262.34 472.897 234.751 468.425 230.279C468.425 230.279 495.995 189.292 495.995 178.856C495.995 168.421 469.916 170.647 437.912 180.347C437.912 180.347 414.06 167.666 370.827 175.12C327.595 182.574 314.933 195.255 314.933 195.255C314.933 195.255 261.265 201.954 257.548 208.653C253.83 215.351 264.885 243.715 298.418 254.15Z" fill="white"/>
</mask>
<g mask="url(#mask5_162_1655)">
<path d="M470.593 263.095C484.765 262.34 472.839 234.77 468.367 230.298C468.367 230.298 473.614 222.554 479.519 212.873C463.507 204.509 447.786 199.863 443.605 204.567C434.602 214.674 439.5 234.034 443.605 252.969C447.709 271.904 431.31 279.977 419.849 296.357C408.387 312.736 392.027 294.711 392.027 294.711C386.219 318.467 361.728 302.901 361.728 302.901C342.909 297.092 310.983 278.351 317.527 265.244C324.071 252.137 325.717 239.862 314.255 229.233C302.794 218.604 257.083 209.756 257.083 209.756C254.682 217.829 266.279 244.276 298.438 254.286C298.438 254.286 292.475 274.402 294.72 282.591C296.966 290.781 307.382 283.346 317.818 292.272C328.253 301.197 337.914 317.305 377.429 320.287C416.945 323.268 440.797 301.952 449.064 290.026C457.331 278.099 456.421 263.831 470.593 263.095Z" fill="#64748B"/>
<path opacity="0.5" d="M470.593 263.095C484.765 262.34 472.839 234.77 468.367 230.298C468.367 230.298 473.614 222.554 479.519 212.873C463.507 204.509 447.786 199.863 443.605 204.567C434.602 214.674 439.5 234.034 443.605 252.969C447.709 271.904 431.31 279.977 419.849 296.357C408.387 312.736 392.027 294.711 392.027 294.711C386.219 318.467 361.728 302.901 361.728 302.901C342.909 297.092 310.983 278.351 317.527 265.244C324.071 252.137 325.717 239.862 314.255 229.233C302.794 218.604 257.083 209.756 257.083 209.756C254.682 217.829 266.279 244.276 298.438 254.286C298.438 254.286 292.475 274.402 294.72 282.591C296.966 290.781 307.382 283.346 317.818 292.272C328.253 301.197 337.914 317.305 377.429 320.287C416.945 323.268 440.797 301.952 449.064 290.026C457.331 278.099 456.421 263.831 470.593 263.095Z" fill="white"/>
<path d="M412.298 267.587C412.86 272.311 402.366 277.402 388.91 278.971C375.455 280.539 364.071 277.983 363.509 273.162C362.948 268.342 373.441 263.366 386.916 261.798C400.391 260.23 411.756 262.882 412.298 267.587Z" fill="#64748B"/>
<path opacity="0.5" d="M412.298 267.587C412.86 272.311 402.366 277.402 388.91 278.971C375.455 280.539 364.071 277.983 363.509 273.162C362.948 268.342 373.441 263.366 386.916 261.798C400.391 260.23 411.756 262.882 412.298 267.587Z" fill="white"/>
</g>
<path d="M298.418 254.15C298.418 254.15 292.455 274.266 294.701 282.456C296.947 290.645 307.363 283.211 317.798 292.136C328.234 301.061 337.895 317.17 377.41 320.151C416.925 323.133 440.778 301.817 449.045 289.89C457.312 277.964 456.499 263.811 470.651 263.076C484.804 262.34 472.897 234.751 468.425 230.279C468.425 230.279 495.995 189.292 495.995 178.856C495.995 168.421 469.916 170.647 437.912 180.347C437.912 180.347 414.06 167.666 370.827 175.12C327.595 182.574 314.933 195.255 314.933 195.255C314.933 195.255 261.265 201.954 257.548 208.653C253.83 215.351 264.885 243.715 298.418 254.15Z" stroke="#263238" stroke-width="1.1133" stroke-miterlimit="10"/>
<path d="M452.568 194.519C433.207 207.529 440.041 220.54 448.696 227.761C453.981 232.176 462.5 231.634 468.327 230.394C468.327 230.394 495.897 189.408 495.897 178.972C495.917 178.876 471.832 181.412 452.568 194.519Z" fill="#64748B" stroke="#263238" stroke-width="1.1133" stroke-miterlimit="10"/>
<path d="M257.064 209.621C254.663 217.694 266.26 244.141 298.418 254.15C298.418 254.15 322.968 251.75 314.778 232.002C307.13 213.57 268.467 208.982 257.064 209.621Z" fill="#64748B" stroke="#263238" stroke-width="1.1133" stroke-miterlimit="10"/>
<path d="M370.711 175.158C368.175 175.604 365.735 176.068 363.393 176.533C367.265 196.087 373.635 228.652 379.327 228.652C385.019 228.652 389.375 192.951 391.234 172.951C384.352 173.241 377.497 173.978 370.711 175.158Z" fill="#64748B" stroke="#263238" stroke-width="1.1133" stroke-miterlimit="10"/>
<path d="M348.504 222.843C354.429 219.359 353.538 193.163 352.589 178.953C346.475 180.472 340.456 182.353 334.564 184.587C336.713 197.887 342.173 226.561 348.504 222.843Z" fill="#64748B" stroke="#263238" stroke-width="1.1133" stroke-miterlimit="10"/>
<path d="M405.831 210.802C411.891 212.931 415.299 191.151 417.215 174.384C411.095 173.387 404.907 172.862 398.706 172.816C398.513 186.581 399.268 208.498 405.831 210.802Z" fill="#64748B" stroke="#263238" stroke-width="1.1133" stroke-miterlimit="10"/>
<path d="M397.719 286.192C392.065 284.706 386.056 285.448 380.933 288.264C380.709 288.394 380.517 288.574 380.375 288.791C380.233 289.008 380.143 289.255 380.113 289.512C380.082 289.77 380.113 290.031 380.202 290.275C380.29 290.519 380.435 290.738 380.623 290.916L390.904 300.597C391.097 300.777 391.33 300.909 391.584 300.982C391.837 301.055 392.105 301.066 392.364 301.015C392.623 300.964 392.867 300.852 393.074 300.688C393.281 300.525 393.447 300.314 393.556 300.074L398.823 288.458C398.917 288.238 398.962 288 398.957 287.761C398.951 287.522 398.894 287.287 398.789 287.072C398.684 286.858 398.534 286.668 398.35 286.516C398.165 286.364 397.95 286.254 397.719 286.192Z" fill="#64748B" stroke="#263238" stroke-width="1.1133" stroke-linecap="round" stroke-linejoin="round"/>
<path d="M373.285 270.026C374.699 273.763 374.137 277.441 372.027 278.235C369.917 279.029 367.051 276.667 365.618 272.949C364.186 269.232 364.767 265.534 366.877 264.74C368.987 263.947 371.853 266.309 373.285 270.026Z" fill="#263238"/>
<path d="M401.32 267.374C400.585 271.246 401.785 274.828 404.012 275.234C406.238 275.641 408.639 272.814 409.374 268.884C410.11 264.954 408.91 261.449 406.683 261.023C404.457 260.597 402.056 263.463 401.32 267.374Z" fill="#263238"/>
<path d="M393.557 300.055C393.557 300.055 379.811 318.718 367.284 299.938" stroke="#263238" stroke-width="1.1133" stroke-linecap="round" stroke-linejoin="round"/>
<path d="M390.904 300.577C390.904 300.577 400.043 310.044 409.684 304.74C419.326 299.435 413.556 291.187 413.556 291.187" stroke="#263238" stroke-width="1.1133" stroke-linecap="round" stroke-linejoin="round"/>
<path d="M348.989 255.119C348.989 255.119 352.357 243.076 368.252 245.961" stroke="#263238" stroke-width="3.33991" stroke-linecap="round" stroke-linejoin="round"/>
<path d="M397.157 244.044C397.157 244.044 409.2 236.823 420.274 248.381" stroke="#263238" stroke-width="3.33991" stroke-linecap="round" stroke-linejoin="round"/>
<path d="M339.831 287.412L351.389 290.296" stroke="#263238" stroke-width="1.1133" stroke-miterlimit="10" stroke-linecap="round"/>
<path d="M349.937 294.633L339.831 296.55" stroke="#263238" stroke-width="1.1133" stroke-miterlimit="10" stroke-linecap="round"/>
<path d="M351.873 299.938L344.651 303.791" stroke="#263238" stroke-width="1.1133" stroke-miterlimit="10" stroke-linecap="round"/>
<path d="M425.095 282.107L435.221 279.687" stroke="#263238" stroke-width="1.1133" stroke-miterlimit="10" stroke-linecap="round"/>
<path d="M427.031 286.928H433.769" stroke="#263238" stroke-width="1.1133" stroke-miterlimit="10" stroke-linecap="round"/>
<path d="M428.464 291.749L437.622 294.15" stroke="#263238" stroke-width="1.1133" stroke-miterlimit="10" stroke-linecap="round"/>
</svg>
