<svg width="601" height="600" viewBox="0 0 601 600" fill="none" xmlns="http://www.w3.org/2000/svg">
<path d="M394.052 62.7783C394.052 62.7783 298.685 25.312 207.477 78.188C116.269 131.064 72.4566 239.857 34.6537 326.93C-3.14921 414.003 22.3933 504.357 94.2489 547.232C166.104 590.108 212.61 531.15 311.811 530.981C411.012 530.813 438.093 546.283 518.903 490.402C599.714 434.521 610.917 297.541 543.208 194.061C475.499 90.5806 394.052 62.7783 394.052 62.7783Z" fill="#D0D0D0"/>
<path opacity="0.7" d="M394.052 62.7783C394.052 62.7783 298.685 25.312 207.477 78.188C116.269 131.064 72.4566 239.857 34.6537 326.93C-3.14921 414.003 22.3933 504.357 94.2489 547.232C166.104 590.108 212.61 531.15 311.811 530.981C411.012 530.813 438.093 546.283 518.903 490.402C599.714 434.521 610.917 297.541 543.208 194.061C475.499 90.5806 394.052 62.7783 394.052 62.7783Z" fill="white"/>
<path d="M216.384 94.8594H71.3628V292.396H216.384V94.8594Z" stroke="#263238" stroke-linecap="round" stroke-linejoin="round"/>
<path d="M206.564 103.177H81.1831V284.066H206.564V103.177Z" stroke="#263238" stroke-linecap="round" stroke-linejoin="round"/>
<path d="M206.564 114.187C204.508 113.682 182.524 108.562 177.547 120.486C172.343 132.987 206.732 165.296 187.969 191.404C169.206 217.511 116.065 177.857 107.735 198.7C99.4054 219.543 100.439 247.681 85.8469 252.886C84.3283 253.415 82.7683 253.817 81.1831 254.088V284.138H206.564V114.187Z" stroke="#263238" stroke-miterlimit="10"/>
<path d="M112.231 103.177C121.667 108.382 128.614 115.882 121.282 125.703C105.656 146.533 82.7217 159.046 97.314 170.501C111.906 181.956 150.454 172.593 145.25 140.283C142.365 122.421 142.365 110.942 145.033 103.177H112.231Z" stroke="#263238" stroke-miterlimit="10"/>
<path d="M146.273 254.303C156.01 249.994 160.411 238.607 156.102 228.87C151.793 219.133 140.406 214.732 130.669 219.041C120.932 223.35 116.531 234.736 120.84 244.474C125.149 254.211 136.536 258.612 146.273 254.303Z" stroke="#263238" stroke-miterlimit="10"/>
<path d="M199.436 218.966C199.433 220.51 198.973 222.02 198.113 223.303C197.253 224.586 196.032 225.586 194.604 226.175C193.177 226.765 191.606 226.918 190.091 226.615C188.576 226.312 187.185 225.567 186.094 224.474C185.002 223.381 184.26 221.989 183.959 220.473C183.659 218.958 183.814 217.388 184.406 215.961C184.997 214.534 185.999 213.314 187.283 212.457C188.568 211.599 190.078 211.141 191.623 211.141C192.65 211.141 193.667 211.343 194.616 211.736C195.564 212.13 196.426 212.706 197.152 213.433C197.877 214.16 198.453 215.023 198.845 215.972C199.236 216.921 199.437 217.939 199.436 218.966Z" stroke="#263238" stroke-miterlimit="10"/>
<path d="M123.361 154.875C123.361 156.112 122.995 157.32 122.308 158.348C121.621 159.376 120.645 160.177 119.503 160.65C118.361 161.123 117.104 161.247 115.892 161.006C114.679 160.765 113.565 160.169 112.691 159.295C111.817 158.421 111.222 157.307 110.981 156.095C110.74 154.882 110.863 153.626 111.336 152.483C111.809 151.341 112.611 150.365 113.638 149.678C114.666 148.992 115.875 148.625 117.111 148.625C118.769 148.625 120.359 149.284 121.531 150.456C122.703 151.628 123.361 153.218 123.361 154.875Z" stroke="#263238" stroke-miterlimit="10"/>
<path d="M571.022 424.869H421.157V443.728H559.711" stroke="#263238" stroke-linecap="round" stroke-linejoin="round"/>
<path d="M428.705 443.728V530.44" stroke="#263238" stroke-linecap="round" stroke-linejoin="round"/>
<path d="M515.418 490.846H440.004V453.151H554.05" stroke="#263238" stroke-linecap="round" stroke-linejoin="round"/>
<path d="M440.004 526.666V501.22H498.445" stroke="#263238" stroke-linecap="round" stroke-linejoin="round"/>
<path d="M505.068 352.736C510.326 352.736 514.588 341.559 514.588 327.771C514.588 313.983 510.326 302.805 505.068 302.805C499.811 302.805 495.549 313.983 495.549 327.771C495.549 341.559 499.811 352.736 505.068 352.736Z" fill="#D0D0D0"/>
<path d="M534.67 312.417C537.646 303.054 536.755 294.413 532.681 293.118C528.606 291.824 522.891 298.365 519.915 307.728C516.94 317.092 517.831 325.732 521.905 327.027C525.979 328.321 531.694 321.78 534.67 312.417Z" fill="#D0D0D0"/>
<path d="M464.801 368.843C455.113 367.208 447.841 362.461 448.562 358.242C449.283 354.023 457.709 351.931 467.386 353.578C477.062 355.225 484.358 359.972 483.637 364.179C482.915 368.386 474.489 370.49 464.801 368.843Z" fill="#D0D0D0"/>
<path d="M543.605 345.791C551.698 337.765 555.258 328.232 551.556 324.499C547.854 320.766 538.291 324.246 530.198 332.271C522.105 340.297 518.545 349.83 522.247 353.563C525.949 357.297 535.511 353.817 543.605 345.791Z" fill="#D0D0D0"/>
<path d="M493.063 350.454C498.01 347.044 495.676 335.077 487.85 323.725C480.025 312.372 469.671 305.934 464.725 309.344C459.778 312.753 462.112 324.72 469.938 336.073C477.763 347.425 488.117 353.863 493.063 350.454Z" fill="#D0D0D0"/>
<path d="M505.729 351.499L506.475 385.816" stroke="#263238" stroke-miterlimit="10" stroke-linecap="round"/>
<path d="M504.852 318.492L505.729 351.499" stroke="#8C8C8C" stroke-miterlimit="10" stroke-linecap="round"/>
<path d="M504.912 313.106L504.852 315.643" stroke="#8C8C8C" stroke-miterlimit="10" stroke-linecap="round"/>
<path d="M493.012 348.866C498.476 360.126 501.678 372.349 502.436 384.842" stroke="#263238" stroke-miterlimit="10" stroke-linecap="round"/>
<path d="M476.665 323.853C483.197 331.43 488.695 339.841 493.012 348.866" stroke="#8C8C8C" stroke-miterlimit="10" stroke-linecap="round"/>
<path d="M471.521 318.419C471.521 318.419 472.506 319.321 474.129 321.04" stroke="#8C8C8C" stroke-miterlimit="10" stroke-linecap="round"/>
<path d="M522.87 352.388C516.196 361.745 510.995 372.07 507.448 383.003" stroke="#263238" stroke-miterlimit="10" stroke-linecap="round"/>
<path d="M533.784 339.803C529.766 343.652 526.113 347.865 522.87 352.388" stroke="#8C8C8C" stroke-miterlimit="10" stroke-linecap="round"/>
<path d="M545.48 330.896C542.503 332.576 539.708 334.557 537.138 336.81" stroke="#8C8C8C" stroke-miterlimit="10" stroke-linecap="round"/>
<path d="M522.437 324.67C517.16 341.27 510.081 365.778 506.811 387.066" stroke="#263238" stroke-miterlimit="10" stroke-linecap="round"/>
<path d="M525.647 314.825C524.709 317.626 523.615 320.955 522.437 324.67" stroke="#8C8C8C" stroke-miterlimit="10" stroke-linecap="round"/>
<path d="M528.94 305.306C528.94 305.306 528.015 307.854 526.536 312.205" stroke="#8C8C8C" stroke-miterlimit="10" stroke-linecap="round"/>
<path d="M483.204 361.884C486.973 363.208 490.387 365.38 493.186 368.23C495.984 371.081 498.092 374.535 499.347 378.327" stroke="#263238" stroke-miterlimit="10" stroke-linecap="round"/>
<path d="M470.98 359.408C475.155 359.618 479.276 360.453 483.204 361.884" stroke="#8C8C8C" stroke-miterlimit="10" stroke-linecap="round"/>
<path d="M463.094 359.6C463.094 359.6 464.296 359.431 466.208 359.359" stroke="#8C8C8C" stroke-miterlimit="10" stroke-linecap="round"/>
<path d="M547.703 368.843C557.392 367.208 564.664 362.461 563.954 358.242C563.245 354.023 554.807 351.931 545.119 353.578C535.431 355.225 528.159 359.972 528.868 364.179C529.577 368.386 538.015 370.49 547.703 368.843Z" fill="#D0D0D0"/>
<path d="M529.565 361.799C525.757 363.111 522.303 365.286 519.474 368.153C516.644 371.02 514.516 374.502 513.254 378.327" stroke="#263238" stroke-miterlimit="10" stroke-linecap="round"/>
<path d="M542.547 359.359C538.121 359.481 533.741 360.292 529.565 361.763" stroke="#8C8C8C" stroke-miterlimit="10" stroke-linecap="round"/>
<path d="M549.41 359.6C549.41 359.6 548.641 359.492 547.319 359.408" stroke="#8C8C8C" stroke-miterlimit="10" stroke-linecap="round"/>
<path d="M481.437 375.827C480.232 379.72 479.624 383.772 479.634 387.847C479.634 406.37 491.786 425.109 506.787 425.109C521.788 425.109 533.929 406.346 533.929 387.847C533.938 383.772 533.331 379.72 532.126 375.827H481.437Z" fill="#263238"/>
<path d="M480.139 381.452C479.995 382.366 479.874 383.303 479.802 384.253H533.772C533.688 383.303 533.58 382.366 533.435 381.452H480.139Z" fill="#7A7A7A"/>
<path d="M533.195 395.804C533.363 394.867 533.508 393.929 533.628 392.992H479.947C480.055 393.929 480.199 394.867 480.367 395.804H533.195Z" fill="#7A7A7A"/>
<path d="M486.185 388.003C486.185 388.436 486.056 388.86 485.815 389.22C485.574 389.58 485.232 389.86 484.832 390.025C484.431 390.191 483.991 390.233 483.566 390.148C483.141 390.062 482.752 389.853 482.446 389.546C482.141 389.239 481.933 388.848 481.85 388.422C481.767 387.997 481.812 387.557 481.98 387.158C482.147 386.758 482.429 386.417 482.791 386.178C483.152 385.939 483.576 385.813 484.009 385.815C484.296 385.815 484.58 385.872 484.845 385.982C485.109 386.092 485.35 386.254 485.552 386.457C485.754 386.66 485.914 386.901 486.023 387.167C486.131 387.432 486.186 387.716 486.185 388.003Z" fill="#8C8C8C"/>
<path d="M497.111 388.003C497.111 388.436 496.983 388.859 496.742 389.219C496.502 389.578 496.16 389.859 495.761 390.024C495.361 390.19 494.921 390.233 494.497 390.149C494.072 390.064 493.683 389.856 493.377 389.55C493.071 389.244 492.862 388.854 492.778 388.43C492.693 388.006 492.737 387.566 492.902 387.166C493.068 386.766 493.348 386.425 493.708 386.184C494.068 385.944 494.491 385.815 494.923 385.815C495.211 385.814 495.496 385.869 495.763 385.979C496.029 386.088 496.27 386.249 496.474 386.453C496.677 386.656 496.838 386.898 496.948 387.164C497.057 387.43 497.113 387.715 497.111 388.003Z" fill="#8C8C8C"/>
<path d="M508.025 388.003C508.025 388.436 507.897 388.86 507.656 389.22C507.415 389.58 507.073 389.86 506.672 390.025C506.272 390.191 505.831 390.233 505.407 390.148C504.982 390.062 504.592 389.853 504.287 389.546C503.981 389.239 503.774 388.848 503.691 388.422C503.608 387.997 503.653 387.557 503.82 387.158C503.988 386.758 504.27 386.417 504.631 386.178C504.992 385.939 505.417 385.813 505.85 385.815C506.137 385.815 506.42 385.872 506.685 385.982C506.95 386.092 507.19 386.254 507.392 386.457C507.595 386.66 507.755 386.901 507.863 387.167C507.972 387.432 508.027 387.716 508.025 388.003Z" fill="#8C8C8C"/>
<path d="M518.951 388.003C518.951 388.436 518.823 388.859 518.583 389.219C518.342 389.578 518.001 389.859 517.601 390.024C517.201 390.19 516.761 390.233 516.337 390.149C515.913 390.064 515.523 389.856 515.217 389.55C514.911 389.244 514.703 388.854 514.618 388.43C514.534 388.006 514.577 387.566 514.743 387.166C514.908 386.766 515.189 386.425 515.548 386.184C515.908 385.944 516.331 385.815 516.764 385.815C517.052 385.814 517.337 385.869 517.603 385.979C517.869 386.088 518.111 386.249 518.314 386.453C518.518 386.656 518.679 386.898 518.788 387.164C518.898 387.43 518.953 387.715 518.951 388.003Z" fill="#8C8C8C"/>
<path d="M529.878 388.003C529.878 388.436 529.749 388.859 529.509 389.218C529.269 389.578 528.927 389.859 528.527 390.024C528.128 390.19 527.688 390.233 527.263 390.149C526.839 390.064 526.449 389.856 526.143 389.55C525.837 389.244 525.629 388.854 525.544 388.43C525.46 388.006 525.503 387.566 525.669 387.166C525.835 386.766 526.115 386.425 526.475 386.184C526.834 385.944 527.257 385.815 527.69 385.815C528.27 385.815 528.827 386.046 529.237 386.456C529.647 386.866 529.878 387.423 529.878 388.003Z" fill="#8C8C8C"/>
<path d="M104.454 528.685C105.115 526.726 105.74 524.875 106.209 523.421C104.274 520.548 102.519 518.024 101.401 516.329C101.208 516.04 100.944 516.124 100.8 516.329L100.98 517.855C101.737 520.668 102.999 524.55 104.454 528.685Z" fill="#D0D0D0"/>
<path d="M107.423 522.171C107.423 521.75 106.738 521.75 106.605 522.171C106.473 522.591 106.353 522.964 106.209 523.373L107.711 525.632C107.639 524.274 107.543 523.072 107.423 522.171Z" fill="#D0D0D0"/>
<path d="M113.878 535.224C113.877 535.17 113.864 535.118 113.841 535.07C113.818 535.022 113.785 534.979 113.744 534.945C113.703 534.911 113.655 534.886 113.603 534.872C113.552 534.857 113.498 534.855 113.445 534.863L113.866 535.609C113.866 535.476 113.878 535.344 113.878 535.224Z" fill="#D0D0D0"/>
<path d="M103.949 530.188C102.951 533.301 101.725 536.594 101.124 539.047C100.425 541.621 99.8992 544.239 99.5497 546.884C98.528 544.203 97.4702 541.535 96.2321 538.95C97.4224 537.913 98.3215 536.583 98.8405 535.092C99.8427 532.576 100.556 529.955 100.968 527.279C101.289 524.222 101.289 521.14 100.968 518.084C100.963 518.02 100.963 517.955 100.968 517.891C100.884 517.603 100.788 517.314 100.716 517.05C100.677 516.937 100.663 516.818 100.676 516.699C100.688 516.581 100.727 516.467 100.788 516.365C100.463 513.829 100.091 511.485 99.754 510.006C99.6578 509.598 99.0208 509.658 98.9366 510.09C98.576 511.953 97.8188 515.115 97.0976 518.312C96.3764 521.509 95.5951 524.875 95.2225 527.399C94.8225 530.034 94.5936 532.692 94.5373 535.356L92.554 531.486L90.3183 527.88C91.4008 526.709 92.1482 525.268 92.4819 523.709C93.1698 521.124 93.5729 518.472 93.6839 515.8C93.6898 512.738 93.4 509.683 92.8185 506.677C92.0973 503.503 91.1958 500.474 90.6068 498.623C90.4746 498.203 89.8255 498.335 89.8014 498.78C89.6091 500.727 89.2726 503.924 88.936 507.29C88.5994 510.655 88.0585 513.997 87.9984 516.521C87.8697 519.182 87.9138 521.848 88.1307 524.502L85.7267 520.896L83.1784 517.435C84.1322 516.157 84.737 514.653 84.9334 513.071C85.3854 510.42 85.5226 507.725 85.342 505.042C85.0152 501.916 84.313 498.841 83.2506 495.883C82.2575 493.219 81.1219 490.611 79.8489 488.07C79.7965 487.99 79.7192 487.93 79.6291 487.899C79.539 487.868 79.4411 487.867 79.3506 487.897C79.2602 487.927 79.1822 487.987 79.1289 488.066C79.0755 488.145 79.0497 488.239 79.0556 488.334C79.2118 490.329 79.332 493.635 79.4643 496.952C79.5965 500.27 79.4643 503.816 79.7768 506.328C79.9429 508.999 80.2801 511.657 80.7864 514.285C78.9474 512.074 77.1804 509.838 75.101 507.819C75.9048 506.432 76.3201 504.854 76.303 503.251C76.4026 500.541 76.1481 497.83 75.5457 495.186C75.2222 493.721 74.7552 492.292 74.1514 490.918C73.5296 489.351 72.8152 487.822 72.0118 486.339C70.6015 483.793 68.9939 481.362 67.2038 479.067C67.14 478.995 67.054 478.946 66.9595 478.929C66.8649 478.911 66.7672 478.925 66.6818 478.969C66.5963 479.014 66.528 479.085 66.4876 479.172C66.4472 479.259 66.437 479.358 66.4586 479.451C66.711 480.425 67.0235 481.699 67.3962 483.166C67.7688 484.632 68.0332 486.291 68.3698 487.974C69.0669 491.255 69.5718 494.765 70.1367 497.253L71.2065 501.58C71.5019 502.74 71.859 503.884 72.2763 505.006L69.115 502.037C68.0573 501.075 66.8793 500.234 65.7614 499.332C66.3514 497.84 66.5178 496.214 66.2422 494.633C65.9208 491.917 65.225 489.26 64.1748 486.735C63.5559 485.346 62.8493 483.997 62.0593 482.697C61.1341 481.257 60.1309 479.868 59.0543 478.538C57.196 476.225 55.1322 474.084 52.888 472.143C52.8132 472.081 52.7196 472.046 52.6225 472.044C52.5254 472.042 52.4303 472.072 52.3526 472.13C52.2749 472.189 52.219 472.272 52.1941 472.365C52.1691 472.459 52.1764 472.559 52.2149 472.648C52.6717 473.574 53.2727 474.788 53.8977 476.17L55.8089 480.713C57.0109 483.851 58.285 487.144 59.2346 489.608C59.8476 491.111 60.4366 492.481 61.0256 493.683C61.4904 494.799 62.0119 495.89 62.5882 496.952L59.9678 495.174L57.2513 493.563C57.1061 493.01 56.8391 492.497 56.47 492.06C55.9051 491.426 55.2813 490.846 54.6069 490.329C52.6912 488.891 50.5563 487.771 48.2844 487.012C45.6063 486.137 42.8078 485.687 39.9906 485.678C38.6459 485.655 37.3011 485.715 35.9639 485.858C36.5168 486.908 37.0817 487.954 37.6587 488.995L39.1492 489.608C41.6493 490.642 44.1855 491.904 46.2289 492.625C50.484 494.164 54.3424 495.174 56.1575 494.861L58.898 496.424C59.7875 496.977 60.6289 497.626 61.5064 498.179C60.3812 498.052 59.2483 498.008 58.1167 498.046C56.7685 498.149 55.4279 498.334 54.102 498.599C52.786 498.867 51.5011 499.27 50.2677 499.801C48.8986 500.349 47.5691 500.992 46.289 501.724L45.7962 502.025C46.5054 503.047 47.2146 504.056 47.9358 505.054L49.871 504.717C51.073 504.537 52.3712 504.321 53.477 504.068C56.0373 503.503 58.4893 503.011 60.5448 502.386C62.0631 502.08 63.5055 501.475 64.7878 500.607C65.8696 501.472 66.9875 502.277 68.0092 503.203L71.0863 505.992C69.98 505.704 68.8556 505.491 67.7207 505.354C66.3782 505.176 65.0217 505.128 63.67 505.21C60.8106 505.38 57.9897 505.954 55.292 506.917C53.8857 507.398 52.5755 507.891 51.4096 508.408L50.6643 508.768C51.1091 509.345 51.5658 509.97 52.0226 510.487H54.5107C55.7969 510.487 57.083 510.571 58.4052 510.571H62.1675C64.7518 510.571 67.3841 510.283 69.4516 510.054C71.0051 510.007 72.5302 509.626 73.923 508.936C75.8943 510.884 77.6492 513.035 79.4162 515.151C77.1089 514.211 74.6812 513.601 72.2042 513.336C69.347 513.104 66.4722 513.23 63.6459 513.708C61.2046 514.117 58.7948 514.695 56.4339 515.439C56.372 515.465 56.315 515.502 56.2656 515.547L56.8907 516.257L62.3958 517.146C64.872 517.687 67.7928 518.096 70.0646 518.432C72.5046 518.746 74.9609 518.914 77.4209 518.937C78.9716 519.091 80.5373 518.911 82.0125 518.408L84.4165 521.75L86.7243 525.212C84.5121 524.007 82.1408 523.12 79.6806 522.579C76.8507 521.966 73.9562 521.704 71.0623 521.798C68.5528 521.858 66.0488 522.058 63.5618 522.399C63.1651 522.483 62.9247 522.988 63.2252 523.096C64.5594 523.541 66.8312 524.298 69.3795 525.043C71.8709 525.992 74.4155 526.794 77.0001 527.447C79.3924 528.056 81.8215 528.51 84.2723 528.805C85.8082 529.096 87.3876 529.068 88.912 528.721L91.0155 532.327L92.9507 536.005C90.8781 534.576 88.6114 533.45 86.2195 532.664C83.4565 531.784 80.6007 531.227 77.7093 531.005C75.3053 530.765 73.0095 530.681 71.2786 530.681C72.4806 531.714 73.6826 532.736 74.8846 533.746L75.702 534.106C78.0948 535.263 80.5462 536.294 83.0462 537.195C85.3689 538.016 87.7417 538.686 90.15 539.203C91.6372 539.669 93.2076 539.808 94.7537 539.611C95.9557 542.112 96.9654 544.696 97.9751 547.268C96.067 545.635 93.9436 544.272 91.6646 543.217C89.3488 542.19 86.9316 541.408 84.4526 540.886C87.6138 543.097 90.8832 545.225 94.2609 547.232C96.5326 548.59 98.7684 549.841 100.992 550.994L100.884 550.658C102.195 549.752 103.234 548.505 103.889 547.052C105.187 544.693 106.173 542.176 106.822 539.563C107.094 538.545 107.295 537.509 107.423 536.462C106.401 533.95 105.391 531.258 104.466 528.649L103.949 530.188Z" fill="#D0D0D0"/>
<path d="M109.911 542.052L109.55 542.833C108.096 545.886 106.666 548.951 105.692 551.355L105.079 553.014C106.774 553.819 108.456 554.577 110.127 555.262C110.536 554.432 110.933 553.543 111.329 552.605C111.964 550.877 112.459 549.1 112.808 547.292C112.002 545.946 111.197 544.48 110.404 542.941C110.199 542.653 110.055 542.304 109.911 542.052Z" fill="#D0D0D0"/>
<path d="M161.068 542.773C161.369 542.484 160.972 541.992 160.551 542.148C156.945 543.458 148.784 546.956 144.384 550.418C142.007 552.212 139.86 554.291 137.99 556.608C138.891 553.302 139.853 549.997 140.947 546.74C142.726 547.076 147.678 544.588 152.967 541.066C157.687 537.552 162.217 533.788 166.537 529.791C166.85 529.503 166.537 528.986 166.068 529.13C164.229 529.719 161.26 530.753 158.051 532.051C155.028 533.264 152.12 534.744 149.361 536.474C146.859 538.105 144.563 540.03 142.521 542.208C143.651 538.963 144.925 535.753 146.127 532.592C147.918 533.061 152.979 530.885 158.484 527.652C163.441 524.379 168.194 520.806 172.715 516.954C173.04 516.677 172.715 516.137 172.271 516.257C170.408 516.786 167.33 517.699 164.097 518.865C161.01 519.938 158.018 521.269 155.154 522.844C152.561 524.343 150.143 526.125 147.942 528.157C149.337 525.019 150.683 521.846 152.185 518.757C153.928 519.31 159.121 517.447 164.794 514.43C167.572 512.846 170.257 511.105 172.836 509.213C175.552 507.302 178.016 505.451 179.495 504.333C179.843 504.081 179.495 503.54 179.086 503.636C175.3 504.453 166.633 506.785 161.693 509.441C159.042 510.833 156.547 512.506 154.253 514.43C155.791 511.353 157.306 508.251 158.94 505.222C160.647 505.859 165.948 504.213 171.718 501.448C176.706 499.044 183.738 494.152 186.851 492.157C187.2 491.928 186.911 491.363 186.466 491.435C182.644 492.012 173.893 493.924 168.857 496.352C166.138 497.605 163.57 499.162 161.2 500.991C162.859 497.974 164.53 494.981 166.285 492C167.955 492.71 173.34 491.315 179.218 488.875C184.279 486.712 191.575 482.348 194.724 480.581C195.085 480.377 194.82 479.812 194.387 479.848C192.476 480.016 189.351 480.413 185.973 481.05C182.767 481.635 179.621 482.512 176.574 483.671C173.794 484.767 171.155 486.191 168.713 487.914C170.48 484.969 172.319 482.072 174.23 479.187C175.889 480.016 181.298 478.863 187.296 476.843C189.88 475.978 193.029 474.523 195.95 473.237C198.871 471.951 201.503 470.761 203.078 470.064C203.451 469.92 203.234 469.343 202.801 469.319C200.033 469.244 197.263 469.344 194.508 469.619C191.322 469.886 188.173 470.478 185.108 471.386C182.269 472.308 179.55 473.563 177.007 475.124C178.461 473.069 179.891 470.989 181.406 468.982C183.269 468.694 187.031 465.052 191.022 460.388C191.887 459.342 192.849 458.128 193.786 456.782C194.724 455.436 195.746 454.089 196.719 452.743C198.339 450.452 200.08 448.249 201.936 446.144C202.004 446.072 202.046 445.979 202.054 445.88C202.061 445.781 202.035 445.682 201.978 445.6C201.922 445.519 201.839 445.459 201.744 445.431C201.649 445.403 201.547 445.409 201.455 445.447C198.777 446.654 196.231 448.137 193.859 449.87C192.429 450.888 191.057 451.983 189.748 453.152C188.564 454.211 187.448 455.343 186.406 456.541C182.572 461.085 180.396 465.653 180.3 467.756C178.737 469.812 177.295 471.939 175.793 474.031C176.345 471.126 176.687 468.186 176.814 465.232C176.946 462.359 176.814 458.609 176.694 454.991C176.574 451.373 176.466 447.911 176.466 445.771C176.456 445.67 176.412 445.574 176.34 445.502C176.268 445.429 176.174 445.383 176.072 445.372C175.97 445.36 175.868 445.384 175.782 445.44C175.696 445.495 175.632 445.578 175.6 445.675C174.456 448.604 173.472 451.594 172.655 454.63C171.721 457.968 171.125 461.391 170.876 464.847C170.54 471.47 171.658 476.867 172.98 478.201C171.129 481.05 169.29 483.887 167.547 486.796C167.909 483.866 168.058 480.913 167.992 477.961C167.919 475.088 167.559 471.41 167.09 467.852C166.621 464.294 166.213 460.917 165.948 458.861C165.925 458.767 165.872 458.683 165.795 458.623C165.719 458.563 165.625 458.53 165.527 458.53C165.43 458.53 165.336 458.563 165.26 458.623C165.183 458.683 165.129 458.767 165.107 458.861C163.905 462.948 161.885 472.203 162.054 477.973C162.186 484.56 163.52 489.909 164.963 491.195C163.232 494.104 161.573 497.061 159.95 500.03C160.175 497.089 160.175 494.136 159.95 491.195C159.529 485.546 157.546 476.435 156.765 472.372C156.742 472.277 156.688 472.193 156.612 472.133C156.536 472.073 156.441 472.04 156.344 472.04C156.247 472.04 156.153 472.073 156.076 472.133C156 472.193 155.946 472.277 155.923 472.372C155.022 476.435 153.592 485.726 154.024 491.447C154.481 497.998 156.08 503.275 157.558 504.465C155.96 507.446 154.469 510.475 152.943 513.516C153.063 510.57 152.939 507.619 152.57 504.694C151.909 499.068 149.457 490.089 148.447 486.099C148.424 486.004 148.37 485.92 148.294 485.86C148.218 485.8 148.123 485.767 148.026 485.767C147.929 485.767 147.835 485.8 147.759 485.86C147.682 485.92 147.628 486.004 147.606 486.099C147.305 488.13 146.884 491.484 146.62 495.017C146.329 498.393 146.329 501.787 146.62 505.162C147.365 511.665 149.204 516.906 150.731 518C149.24 521.053 147.918 524.178 146.536 527.267C146.509 524.318 146.244 521.375 145.743 518.468C145.13 515.148 144.327 511.865 143.339 508.636C142.389 505.234 141.379 502.025 140.766 500.066C140.742 499.967 140.683 499.88 140.6 499.821C140.517 499.763 140.416 499.736 140.315 499.746C140.214 499.756 140.12 499.803 140.05 499.877C139.981 499.951 139.94 500.048 139.937 500.15C139.516 504.225 138.855 513.564 139.829 519.286C140.85 525.777 143.014 530.921 144.637 531.919C143.435 535.068 142.137 538.229 141.031 541.439C140.791 538.491 140.35 535.563 139.708 532.676C138.91 529.383 137.943 526.134 136.812 522.94C136.583 522.243 136.343 521.558 136.115 520.884C136.607 518.793 137.016 516.966 137.317 515.584C137.461 514.947 136.896 514.454 136.583 514.947C136.127 515.68 135.574 516.581 134.961 517.615C134.528 516.413 134.143 515.295 133.831 514.454C133.793 514.365 133.726 514.291 133.642 514.244C133.557 514.198 133.46 514.18 133.364 514.196C133.269 514.211 133.181 514.258 133.116 514.328C133.05 514.399 133.01 514.49 133.001 514.586C132.905 516.197 132.809 518.613 132.809 521.293C131.222 524.106 129.504 527.303 128.001 530.464C127.833 530.068 127.688 529.695 127.556 529.371C127.516 529.279 127.446 529.204 127.357 529.158C127.268 529.113 127.165 529.099 127.068 529.121C126.97 529.142 126.882 529.196 126.82 529.275C126.758 529.353 126.725 529.451 126.727 529.551C126.727 530.513 126.727 531.763 126.727 533.157C126.15 534.467 125.633 535.753 125.2 536.955C123.746 541.043 122.632 545.244 121.871 549.516C121.402 544.143 121.017 538.698 120.669 533.373C122.46 532.904 125.982 526.51 129.299 518.024C132.148 510.691 135.381 497.986 136.884 492.469C137.04 491.844 136.487 491.327 136.163 491.82C133.326 496.039 126.967 506.076 124.143 513.456C122.491 517.501 121.172 521.673 120.2 525.933C119.928 520.548 119.703 515.159 119.527 509.766C121.342 509.345 125.056 503.071 128.674 494.705C130.189 491.099 131.92 486.147 133.398 481.483C135.069 476.999 136.523 472.865 137.377 470.34C137.569 469.775 137.04 469.259 136.703 469.679C135.189 471.542 132.701 474.704 130.153 478.382C129.516 479.295 128.878 480.245 128.253 481.218C127.628 482.192 127.051 483.226 126.535 484.223C125.429 486.231 124.419 488.214 123.614 490.017C121.864 493.995 120.437 498.107 119.347 502.314C119.25 496.929 119.178 491.496 119.226 486.135C120.128 485.966 121.63 484.344 123.265 481.735C125.397 478.534 127.348 475.215 129.107 471.795C129.552 470.965 129.984 470.04 130.429 469.078L131.968 466.049C133.013 463.958 134.047 461.758 135.021 459.619C135.994 457.479 137.064 455.412 137.966 453.609L140.249 448.957C140.514 448.416 140.057 447.827 139.66 448.224C137.918 449.906 135.057 452.779 132.052 456.157C129.225 459.5 126.672 463.065 124.419 466.819C123.808 467.829 123.262 468.877 122.784 469.956C122.304 470.989 121.859 472.023 121.438 473.033C120.609 475.04 119.9 476.951 119.359 478.67C119.647 473.297 119.707 467.912 120.464 462.575C122.364 462.407 126.691 456.71 131.847 449.474C136.006 443.115 142.509 432.357 145.454 427.838C145.779 427.309 145.382 426.636 144.949 427.02C143.026 428.547 139.865 431.119 136.535 434.172C133.363 437.21 130.422 440.48 127.737 443.956C125.301 447.513 123.154 451.259 121.318 455.159L122.688 447.214L123.385 443.235L124.287 439.305C125.212 439.305 126.979 438.043 129.191 435.915C131.403 433.788 134.167 430.843 137.052 427.501C139.456 424.568 142.629 420.554 145.466 416.683L152.786 407.151C153.171 406.658 152.87 405.949 152.378 406.298C150.262 407.62 146.933 409.904 143.327 412.644C139.836 415.339 136.569 418.309 133.554 421.527C130.736 424.799 128.203 428.306 125.982 432.009L128.181 424.232L129.299 420.361L130.585 416.527C132.436 416.755 138.014 412.14 144.444 405.985C149.974 400.612 158.183 391.068 162.078 387.198C162.498 386.753 162.234 386.056 161.741 386.321C158.443 387.98 155.234 389.81 152.125 391.802C150.25 393.004 148.267 394.302 146.476 395.66C144.685 397.018 143.014 398.413 141.572 399.747C139.865 401.31 138.259 402.98 136.764 404.747C135.333 406.394 134.059 407.993 133.001 409.447C134.456 405.781 135.742 402.055 137.341 398.437C138.362 397.728 139.877 395.6 141.608 392.535C143.339 389.47 145.454 385.551 147.69 381.26C148.639 379.349 149.649 377.101 150.743 374.769L152.329 371.163L153.976 367.557C156.128 362.749 158.207 358.314 159.59 355.646C159.902 355.033 159.385 354.648 158.904 355.165C155.906 358.474 153.097 361.949 150.49 365.574L148.147 368.88C147.401 370.009 146.68 371.151 145.959 372.257C144.641 374.317 143.438 376.448 142.353 378.64C140.504 382.285 138.925 386.062 137.629 389.939C136.785 392.318 136.267 394.801 136.09 397.319L134.888 400.095L133.807 402.908L131.631 408.546C131.811 406.791 131.932 404.795 131.992 402.62C132.052 400.444 131.992 398.124 132.076 395.72C132.076 393.701 131.968 391.429 131.799 389.049C131.631 386.669 131.487 384.241 131.331 381.837C130.922 377.029 130.681 372.606 130.453 369.817C130.453 369.192 129.672 369.444 129.504 370.142L128.157 375.947C127.713 378.255 127.244 380.839 126.811 383.46C126.378 386.08 126.102 388.821 125.849 391.369C125.599 393.696 125.495 396.037 125.537 398.377C125.669 407.764 127.496 414.868 129.071 415.962L127.797 419.7C127.4 420.902 127.063 422.248 126.691 423.522L124.515 431.167C124.496 426.884 124.223 422.605 123.698 418.354C123.397 414.363 122.496 409.315 121.691 404.591C120.885 399.867 120.164 395.408 119.707 392.727C119.623 392.114 118.89 392.427 118.77 393.136C118.385 396.261 117.664 401.334 117.351 406.67C116.981 411.67 117.033 416.692 117.508 421.683C117.895 425.671 118.701 429.608 119.912 433.427C120.909 436.444 121.931 438.379 122.772 438.848L121.883 442.73L121.198 446.649L119.839 454.498C119.368 450.231 118.642 445.997 117.664 441.817C116.955 437.874 115.596 432.958 114.262 428.282C112.928 423.607 111.93 419.315 111.197 416.647C111.029 416.034 110.356 416.419 110.32 417.14C109.947 423.462 109.875 437.718 111.87 445.796C113.769 455.003 117.195 461.602 118.926 462.335C118.181 467.588 118.109 472.913 117.832 478.213C117.447 476.495 116.931 474.607 116.294 472.468C115.981 471.434 115.644 470.352 115.272 469.247C114.899 468.141 114.515 466.999 114.19 465.857C112.988 462.011 111.089 457.251 109.31 452.743C107.531 448.236 106.04 444.029 105.031 441.432C104.802 440.831 104.165 441.288 104.213 442.021C104.334 443.596 104.478 445.687 104.646 448.031C104.814 450.375 105.031 452.983 105.524 455.688C106.016 458.392 106.449 461.073 106.966 463.609C107.242 464.871 107.483 466.085 107.807 467.215C108.132 468.345 108.505 469.451 108.853 470.437C110.136 474.223 111.745 477.89 113.661 481.399C115.296 484.079 116.714 485.75 117.64 486.038C117.64 491.327 117.64 496.616 117.76 501.917C116.517 497.845 115.032 493.852 113.313 489.957C112.531 488.118 111.546 486.099 110.452 484.031L108.769 480.894L107.134 477.661C104.863 473.321 102.771 469.247 101.485 466.843C101.196 466.278 100.619 466.843 100.752 467.528C101.353 470.689 102.35 475.846 103.612 481.038C104.892 485.737 106.47 490.35 108.336 494.849C112.002 503.263 116.089 509.273 117.952 509.766C118.109 515.055 118.337 520.344 118.601 525.632C117.241 521.603 115.636 517.661 113.793 513.829C110.332 506.617 103.733 496.472 100.836 491.988C100.511 491.484 99.9704 491.988 100.139 492.686C101.629 498.539 105.476 511.665 108.973 518.901C112.94 527.171 117.207 533.037 119.07 533.469C119.419 538.758 119.791 544.035 120.272 549.312C118.758 545.336 117.017 541.451 115.055 537.676C114.707 537.003 114.322 536.294 113.853 535.573C113.848 538.217 113.683 540.858 113.361 543.482C113.216 544.744 113.012 546.018 112.76 547.256C116.173 553.026 119.395 556.872 120.921 557.137C120.921 557.786 121.065 558.435 121.126 559.084L122.796 559.565C122.712 558.711 122.616 557.858 122.532 557.005C123.878 556.596 126.138 552.786 128.386 547.256C128.53 547.833 128.662 548.386 128.818 548.891C130.693 555.322 133.554 560.094 135.297 560.839L135.045 562.041L136.655 562.233L136.872 561.26C138.675 561.428 143.399 558.543 148.351 554.721C152.654 551.367 158.472 545.333 161.068 542.773ZM136.487 555.995C136.028 553.065 135.369 550.169 134.516 547.328C133.807 544.924 132.653 541.835 131.463 538.842C132.148 536.655 132.821 534.215 133.482 531.714C133.602 532.472 133.735 533.205 133.891 533.878C135.297 540.357 137.749 545.321 139.408 546.235C138.374 549.444 137.425 552.701 136.535 555.983L136.487 555.995Z" fill="#D0D0D0"/>
<path d="M113.445 534.863C111.75 531.907 109.694 528.685 107.711 525.68C107.783 527.123 107.831 528.745 107.855 530.38C107.783 532.471 107.675 534.575 107.411 536.498C108.24 538.518 109.081 540.405 109.911 542.051C111.113 539.299 112.315 536.727 113.072 535.116C113.105 535.044 113.157 534.982 113.223 534.937C113.289 534.893 113.365 534.867 113.445 534.863Z" fill="#D0D0D0"/>
<path d="M285.523 207.03C285.523 207.03 285.523 232.981 284.862 235.602C284.201 238.222 259.62 243.607 259.62 243.607C259.62 243.607 277.302 257.61 304.887 256.949C332.473 256.288 344.974 237.573 344.974 237.573L329.949 233.39L327.894 210.312C327.894 210.312 300.308 217.211 285.523 207.03Z" fill="white" stroke="#263238" stroke-linecap="round" stroke-linejoin="round"/>
<path d="M261.315 240.182L268.611 234.508C268.611 234.508 280.367 240.518 301.438 240.518C322.509 240.518 332.69 237.285 336.296 234.039L339.902 230.794L351.657 235.253C351.657 235.253 348.051 238.499 337.87 247.009C327.689 255.519 281.136 253.488 268.984 248.632C256.831 243.776 261.315 240.182 261.315 240.182Z" fill="#D0D0D0" stroke="#263238" stroke-linecap="round" stroke-linejoin="round"/>
<path d="M321.331 217.764L310.308 212.571C301.979 212.8 292.375 211.754 285.523 207.03C285.523 207.03 285.523 227.464 285.066 233.883C316.559 233.835 321.331 217.764 321.331 217.764Z" fill="#263238" stroke="#263238" stroke-linecap="round" stroke-linejoin="round"/>
<path d="M265.318 151.81C265.318 153.625 268.046 191.332 270.498 198.184C276.232 214.23 296.029 232.789 314.047 223.774C320.465 220.565 326.427 215.288 331.993 210.829C335.923 207.679 343.4 203.124 345.215 198.112C347.03 193.099 357.463 162.244 357.463 162.244C357.463 162.244 354.746 136.365 344.301 123.203C333.856 110.041 326.139 110.942 312.063 116.4C297.988 121.857 264.44 145.909 264.44 145.909L265.318 151.81Z" fill="white" stroke="#263238" stroke-linecap="round" stroke-linejoin="round"/>
<path d="M281.713 157.111C285.129 152.733 289.99 149.713 295.428 148.589" stroke="#263238" stroke-width="3" stroke-miterlimit="10" stroke-linecap="round"/>
<path d="M321.92 145.849C321.92 145.849 331.764 149.539 334.745 159.84" stroke="#263238" stroke-width="3" stroke-miterlimit="10" stroke-linecap="round"/>
<path d="M306.606 200.395C306.657 200.762 306.628 201.136 306.522 201.491C306.415 201.847 306.234 202.175 305.991 202.454C305.747 202.734 305.446 202.958 305.109 203.111C304.771 203.265 304.405 203.344 304.034 203.344C303.663 203.344 303.297 203.265 302.959 203.111C302.622 202.958 302.321 202.734 302.078 202.454C301.834 202.175 301.653 201.847 301.547 201.491C301.44 201.136 301.411 200.762 301.462 200.395C301.462 198.76 302.748 198.58 304.178 198.58C305.609 198.58 306.606 198.76 306.606 200.395Z" fill="#263238" stroke="#263238" stroke-linecap="round" stroke-linejoin="round"/>
<path d="M277.842 169.492L291.485 167.893" stroke="#263238" stroke-linecap="round" stroke-linejoin="round"/>
<path d="M318.326 168.807L335.839 171.992" stroke="#263238" stroke-linecap="round" stroke-linejoin="round"/>
<path d="M325.742 162.112C325.742 164.335 324.66 166.15 323.338 166.15C322.016 166.15 320.934 164.335 320.934 162.112C320.934 159.888 322.016 158.085 323.338 158.085C324.66 158.085 325.742 159.888 325.742 162.112Z" fill="#263238"/>
<path d="M291.101 161.27C291.101 163.542 289.971 165.393 288.564 165.393C287.158 165.393 286.076 163.482 286.076 161.27C286.076 159.058 287.218 157.159 288.612 157.159C290.007 157.159 291.101 158.938 291.101 161.27Z" fill="#263238"/>
<path d="M299.022 181.127C299.243 181.997 299.674 182.8 300.277 183.464C300.881 184.129 301.639 184.635 302.483 184.938C305.609 186.332 309.768 187.714 313.59 181.476" stroke="#263238" stroke-linecap="round" stroke-linejoin="round"/>
<path d="M393.331 150.596C393.333 150.544 393.333 150.492 393.331 150.44" stroke="#263238" stroke-linecap="round" stroke-linejoin="round"/>
<path d="M387.441 166.331C387.441 166.331 389.256 164.972 391.047 160.886C392.288 157.581 393.049 154.117 393.306 150.596C393.234 151.197 392.669 153.445 388.33 152.255C383.33 150.897 377.224 145.933 377.224 142.303C377.224 138.673 378.342 110.498 369.711 100.052C361.081 89.607 348.833 88.2487 341.572 92.3355C341.572 92.3355 326.127 78.7168 312.965 76.9018C299.803 75.0868 282.097 78.2601 273.467 85.9769C264.837 93.6938 261.231 96.867 251.699 105.978C245.617 111.65 238.732 116.393 231.265 120.054C231.179 121.301 231.429 122.55 231.989 123.668C232.549 124.786 233.399 125.734 234.45 126.412C236.893 127.873 239.479 129.082 242.167 130.018C240.007 131.784 237.721 133.391 235.328 134.826C233.871 135.461 232.363 135.972 230.82 136.353L227.635 135.908C227.635 135.908 227.178 143.12 231.241 146.341C235.304 149.563 245.316 151.342 250.317 143.168C249.642 144.405 249.052 145.686 248.55 147.002L238.417 158.722C236.911 160.575 234.991 162.049 232.811 163.024C230.631 163.999 228.253 164.448 225.868 164.335C225.868 164.335 226.301 167.364 230.676 172.99C235.051 178.615 245.809 183.363 252.733 185.094C255.834 185.997 259.02 186.577 262.24 186.825C262.24 186.825 261.88 185.539 261.507 183.471C264.067 184.397 265.834 185.01 265.834 185.01C264.401 178.093 264.182 170.979 265.185 163.987C265.474 161.931 268.106 158.746 269.056 157.268C273.184 151.407 278.95 146.895 285.631 144.298C294.418 141.317 302.255 141.702 310.705 137.879C315.08 135.896 326.632 130.03 326.632 124.104C326.632 124.104 331.175 142.255 338.892 153.157C346.609 164.059 353.869 182.209 353.869 182.209L351.128 198.532C351.128 198.532 356.573 195.359 372.921 188.087C389.268 180.815 394.256 172.689 395.614 169.059C396.287 167.154 397.204 165.344 398.343 163.674L387.441 166.331Z" fill="#263238" stroke="#263238" stroke-linecap="round" stroke-linejoin="round"/>
<path d="M251.687 218.858C251.687 218.858 252.673 173.182 253.658 168.278C254.644 163.374 261.219 159.732 261.219 159.732C261.219 159.732 270.414 150.536 272.71 149.551C275.006 148.565 276.316 150.873 275.342 153.493C274.369 156.114 267.782 165.97 267.782 165.97L267.457 179.769C270.824 177.301 274.452 175.209 278.275 173.531C283.852 171.235 296.666 167.941 297.651 168.278C298.637 168.614 296.99 172.22 293.709 174.516C290.427 176.812 282.218 179.444 281.232 180.43C280.246 181.416 273.347 188.964 273.347 188.964C273.347 188.964 284.165 185.022 287.47 183.387C290.776 181.752 299.947 175.177 300.284 178.783C300.62 182.389 294.033 186.669 290.427 189.289C286.821 191.909 274.994 197.511 274.994 199.482C274.994 201.453 274.994 214.916 273.022 221.118C271.051 227.32 268.743 229.652 263.827 232.609C259.775 234.908 255.607 236.994 251.338 238.859L243.79 224.736C243.79 224.736 251.362 222.14 251.687 218.858Z" fill="white" stroke="#263238" stroke-linecap="round" stroke-linejoin="round"/>
<path d="M261.219 159.731C261.219 159.731 257.937 164.984 257.937 168.602C257.937 172.22 258.586 185.683 258.586 185.683" stroke="#263238" stroke-linecap="round" stroke-linejoin="round"/>
<path d="M384.099 457.179L229.859 456.758V543.506H231.71C254.836 536.859 280.739 531.041 311.799 530.981C343.291 530.981 367.5 532.448 388.487 532.76L384.099 457.179Z" fill="#263238" stroke="#263238" stroke-linecap="round" stroke-linejoin="round"/>
<path d="M259.283 455.075C259.283 456.337 256.339 479.452 231.121 489.933" stroke="white" stroke-linecap="round" stroke-linejoin="round"/>
<path d="M380.686 493.647C381.655 493.976 382.653 494.289 383.679 494.585" stroke="white" stroke-linecap="round" stroke-linejoin="round"/>
<path d="M341.236 459.282C341.236 459.282 347.763 479.885 374.471 491.291" stroke="white" stroke-linecap="round" stroke-linejoin="round"/>
<path d="M298.361 508.444L296.269 472.72L295.428 467.684L307.195 468.105L308.457 500.883" stroke="white" stroke-linecap="round" stroke-linejoin="round"/>
<path d="M320.129 517.267L281.557 501.304" stroke="white" stroke-linecap="round" stroke-linejoin="round"/>
<path d="M330.31 521.473L325.994 519.694" stroke="white" stroke-linecap="round" stroke-linejoin="round"/>
<path d="M305.512 512.23V546.848" stroke="white" stroke-linecap="round" stroke-linejoin="round"/>
<path d="M226.505 443.308C226.505 443.308 226.084 455.075 228.176 458.862C230.267 462.648 250.882 473.141 301.305 473.141C351.729 473.141 382.416 462.636 386.203 459.703C389.989 456.77 390.398 456.758 390.398 454.234C390.398 451.71 389.568 440.363 389.568 440.363C389.568 440.363 346.296 450.868 290.8 446.673C235.304 442.478 225.664 438.259 225.664 438.259L226.505 443.308Z" fill="#D0D0D0" stroke="#263238" stroke-linecap="round" stroke-linejoin="round"/>
<path d="M322.857 248.355C313.566 251.264 303.109 250.206 293.541 247.718C281.989 244.725 270.931 239.821 259.163 237.814C237.804 234.208 218.223 241.095 201.167 253.62C181.963 267.728 163.628 282.981 146.26 299.296C142.149 303.166 137.785 307.71 137.749 313.371C137.677 322.627 148.772 327.615 158.015 328.12C181.863 329.43 204.148 317.302 224.918 305.462C230.652 346.437 227.683 388.16 216.204 427.91C214.834 432.634 213.439 438.043 216.072 442.19C218.103 445.363 221.937 446.805 225.519 447.947C276.135 464.075 330.47 464.356 381.251 448.753C384.736 447.659 388.463 446.349 390.446 443.223C392.682 439.726 391.9 435.17 391.047 431.119C384.74 400.997 378.426 370.879 372.103 340.765C377.2 348.518 379.315 357.785 381.779 366.74C384.244 375.695 387.285 384.866 393.703 391.573C400.122 398.281 410.808 401.778 418.945 397.343C424.691 394.218 428.081 387.847 429.186 381.393C430.292 374.938 429.451 368.351 428.597 361.872C425.184 335.845 421.75 309.845 418.296 283.874C416.361 269.234 413.717 253.187 402.49 243.583C394.316 236.6 383.15 234.472 372.44 233.21C362.824 232.008 352.643 231.527 343.965 235.806C338.387 238.559 333.868 243.126 328.339 246.059C326.585 246.99 324.751 247.759 322.857 248.355Z" fill="white"/>
<path d="M381.779 366.716C382.08 367.81 382.392 368.916 382.717 370.022H429.523C429.306 367.281 428.958 364.553 428.609 361.848C428.08 357.89 427.559 353.935 427.047 349.984H376.743C378.701 355.474 380.382 361.058 381.779 366.716Z" fill="#D0D0D0"/>
<path d="M151.212 294.692H419.775C419.294 291.086 418.813 287.48 418.344 283.814C417.948 280.797 417.515 277.72 416.986 274.655H174.182C166.369 281.138 158.712 287.817 151.212 294.692Z" fill="#D0D0D0"/>
<path d="M216.204 427.886C214.834 432.61 213.439 438.019 216.072 442.166C216.941 443.467 218.096 444.552 219.449 445.339H388.498C389.257 444.733 389.914 444.011 390.446 443.199C392.681 439.701 391.9 435.146 391.047 431.095L389.845 425.313H216.913C216.673 426.167 216.456 427.032 216.204 427.886Z" fill="#D0D0D0"/>
<path d="M328.459 245.999C326.671 246.974 324.796 247.779 322.857 248.403C313.566 251.312 303.109 250.254 293.541 247.766C281.989 244.773 270.931 239.869 259.163 237.862C256.776 237.462 254.368 237.189 251.951 237.044H243.537C228.224 238.054 214.016 244.256 201.239 253.668C199.7 254.798 198.186 255.94 196.671 257.082H412.13C410.301 252.366 407.445 248.117 403.769 244.643C400.093 241.168 395.69 238.556 390.879 236.996H341.777C337.185 239.737 333.183 243.475 328.459 245.999Z" fill="#D0D0D0"/>
<path d="M378.246 370.022C376.835 363.339 375.433 356.659 374.039 349.984H227.719C227.639 356.667 227.322 363.347 226.77 370.022H378.246Z" fill="#D0D0D0"/>
<path d="M158.015 328.096C177.187 329.142 195.277 321.485 212.502 312.326H137.797C137.779 312.666 137.779 313.007 137.797 313.347C137.677 322.603 148.772 327.591 158.015 328.096Z" fill="#D0D0D0"/>
<path d="M225.796 312.326C226.577 318.973 227.094 325.656 227.419 332.351H424.727L422.095 312.326H225.796Z" fill="#D0D0D0"/>
<path d="M390.518 387.643C391.478 389.025 392.543 390.331 393.703 391.55C400.122 398.257 410.808 401.755 418.945 397.319C422.758 395.131 425.722 391.722 427.359 387.643H390.518Z" fill="#D0D0D0"/>
<path d="M224.774 387.643C223.828 394.366 222.626 401.045 221.168 407.68H386.142C384.74 400.997 383.338 394.318 381.935 387.643H224.774Z" fill="#D0D0D0"/>
<g opacity="0.7">
<path d="M381.779 366.716C382.08 367.81 382.392 368.915 382.717 370.021H429.523C429.306 367.281 428.958 364.552 428.609 361.848C428.08 357.889 427.559 353.934 427.047 349.984H376.743C378.701 355.473 380.382 361.058 381.779 366.716Z" fill="white"/>
<path d="M151.212 294.692H419.775C419.294 291.086 418.813 287.48 418.344 283.814C417.948 280.797 417.515 277.72 416.986 274.655H174.182C166.369 281.138 158.712 287.817 151.212 294.692Z" fill="white"/>
<path d="M216.204 427.886C214.834 432.61 213.439 438.019 216.072 442.166C216.941 443.467 218.096 444.552 219.449 445.339H388.498C389.257 444.733 389.914 444.011 390.446 443.199C392.681 439.701 391.9 435.146 391.047 431.095L389.845 425.313H216.913C216.673 426.167 216.456 427.032 216.204 427.886Z" fill="white"/>
<path d="M328.459 245.999C326.671 246.974 324.796 247.779 322.857 248.403C313.566 251.312 303.109 250.254 293.541 247.766C281.989 244.773 270.931 239.869 259.163 237.862C256.776 237.462 254.368 237.189 251.951 237.044H243.537C228.224 238.054 214.016 244.256 201.239 253.668C199.7 254.798 198.186 255.94 196.671 257.082H412.13C410.301 252.366 407.445 248.117 403.769 244.643C400.093 241.168 395.69 238.556 390.879 236.996H341.777C337.185 239.737 333.183 243.475 328.459 245.999Z" fill="white"/>
<path d="M378.246 370.021C376.835 363.338 375.433 356.659 374.039 349.984H227.719C227.639 356.667 227.322 363.346 226.77 370.021H378.246Z" fill="white"/>
<path d="M158.015 328.095C177.187 329.141 195.277 321.484 212.502 312.325H137.797C137.779 312.666 137.779 313.007 137.797 313.347C137.677 322.602 148.772 327.591 158.015 328.095Z" fill="white"/>
<path d="M225.796 312.325C226.577 318.972 227.094 325.655 227.419 332.35H424.727L422.095 312.325H225.796Z" fill="white"/>
<path d="M390.518 387.643C391.478 389.024 392.543 390.33 393.703 391.549C400.122 398.256 410.808 401.754 418.945 397.319C422.758 395.131 425.722 391.722 427.359 387.643H390.518Z" fill="white"/>
<path d="M224.774 387.643C223.828 394.366 222.626 401.045 221.168 407.68H386.142C384.74 400.997 383.338 394.318 381.935 387.643H224.774Z" fill="white"/>
</g>
<path d="M224.918 305.438L237.996 292.288L227.178 318.732L224.918 305.438Z" fill="#263238" stroke="#263238" stroke-linecap="round" stroke-linejoin="round"/>
<path d="M316.403 432.73C311.874 435.403 307.195 437.811 302.387 439.942" stroke="#263238" stroke-miterlimit="10"/>
<path d="M369.591 388.448C369.591 388.448 349.614 410.998 323.699 428.114" stroke="#263238" stroke-miterlimit="10"/>
<path d="M273.263 436.528C271.784 437.105 270.294 437.73 268.791 438.235" stroke="#263238" stroke-miterlimit="10"/>
<path d="M322.785 414.183C322.785 414.183 303.553 424.232 279.585 433.968" stroke="#263238" stroke-miterlimit="10"/>
<path d="M241.193 289.391L248.393 282.792" stroke="#263238" stroke-miterlimit="10"/>
<path d="M282.819 248.56C282.819 248.56 308.95 261.625 335.707 266.385" stroke="#263238" stroke-miterlimit="10"/>
<path d="M325.814 269.45C327.85 269.875 329.949 270.276 332.113 270.652" stroke="#263238" stroke-miterlimit="10"/>
<path d="M294.105 258.632C301.743 262.432 309.761 265.413 318.025 267.527" stroke="#263238" stroke-miterlimit="10"/>
<path d="M322.857 248.355C313.566 251.264 303.109 250.206 293.541 247.718C281.989 244.725 270.931 239.821 259.163 237.814C237.804 234.208 218.223 241.095 201.167 253.62C181.963 267.728 163.628 282.981 146.26 299.296C142.149 303.166 137.785 307.71 137.749 313.371C137.677 322.627 148.772 327.615 158.015 328.12C181.863 329.43 204.148 317.302 224.918 305.462C230.652 346.437 227.683 388.16 216.204 427.91C214.834 432.634 213.439 438.043 216.072 442.19C218.103 445.363 221.937 446.805 225.519 447.947C276.135 464.075 330.47 464.356 381.251 448.753C384.736 447.659 388.463 446.349 390.446 443.223C392.682 439.726 391.9 435.17 391.047 431.119C384.74 400.997 378.426 370.879 372.103 340.765C377.2 348.518 379.315 357.785 381.779 366.74C384.244 375.695 387.285 384.866 393.703 391.573C400.122 398.281 410.808 401.778 418.945 397.343C424.691 394.218 428.08 387.847 429.186 381.393C430.292 374.938 429.451 368.351 428.597 361.872C425.184 335.845 421.75 309.845 418.296 283.874C416.361 269.234 413.717 253.187 402.49 243.583C394.316 236.6 383.15 234.472 372.44 233.21C362.824 232.008 352.643 231.527 343.965 235.806C338.387 238.559 333.868 243.126 328.339 246.059C326.585 246.99 324.751 247.759 322.857 248.355Z" stroke="#263238" stroke-miterlimit="10"/>
<path d="M243.405 221.971L258.43 247.418L238.393 261.036L225.976 229.784L243.405 221.971Z" fill="#D0D0D0" stroke="#263238" stroke-linecap="round" stroke-linejoin="round"/>
<path d="M368.848 160.088L346.489 154.273C343.566 153.512 340.58 155.266 339.82 158.189L324.164 218.378C323.404 221.301 325.157 224.287 328.08 225.047L350.439 230.863C353.362 231.623 356.348 229.87 357.108 226.947L372.764 166.758C373.524 163.835 371.771 160.849 368.848 160.088Z" fill="#D0D0D0" stroke="#263238" stroke-linecap="round" stroke-linejoin="round"/>
<path d="M370.913 167.16C370.764 167.722 370.451 168.228 370.015 168.613C369.578 168.998 369.038 169.244 368.461 169.322C367.885 169.4 367.298 169.305 366.775 169.05C366.252 168.795 365.817 168.39 365.523 167.888C365.23 167.385 365.093 166.807 365.128 166.226C365.163 165.645 365.369 165.088 365.721 164.624C366.072 164.161 366.553 163.812 367.103 163.621C367.653 163.431 368.247 163.407 368.81 163.554C369.186 163.651 369.539 163.821 369.849 164.055C370.159 164.289 370.42 164.582 370.615 164.917C370.811 165.253 370.938 165.624 370.989 166.009C371.04 166.394 371.015 166.785 370.913 167.16Z" fill="white" stroke="#263238" stroke-linecap="round" stroke-linejoin="round"/>
<path d="M369.098 265.075L360.191 244.833C360.191 244.833 370.721 214.892 369.507 209.975C368.293 205.059 355.792 187.378 354.59 185.755C353.388 184.132 348.111 180.094 346.501 181.704C344.89 183.315 346.897 185.755 348.905 188.988C350.912 192.222 356.585 201.129 356.585 202.751C356.585 204.374 357.787 211.658 357.787 211.658C357.787 211.658 348.075 198.701 343.628 196.681C339.18 194.662 333.11 192.631 329.468 192.631C325.826 192.631 329.06 196.681 330.67 197.439C332.281 198.196 339.974 201.898 340.779 203.112C341.584 204.326 353.316 220.168 353.316 220.168C353.316 220.168 342.39 212.476 339.962 211.67C337.534 210.865 323.771 212.872 321.343 212.872C318.915 212.872 321.343 216.478 322.545 216.478C323.747 216.478 337.93 217.68 337.93 217.68L349.253 227.392C349.253 227.392 336.308 222.933 334.685 222.933C333.062 222.933 326.199 224.976 323.338 224.976C320.477 224.976 322.929 228.21 328.146 227.801C331.243 227.559 334.353 227.559 337.45 227.801L345.948 235.494C345.948 235.494 340.683 252.093 342.714 257.346C344.746 262.599 356.465 272.732 356.465 272.732L369.098 265.075Z" fill="white" stroke="#263238" stroke-linecap="round" stroke-linejoin="round"/>
<path d="M374.147 257.286L349.337 271.53L358.016 294.404L386.407 275.761L374.147 257.286Z" fill="#D0D0D0" stroke="#263238" stroke-linecap="round" stroke-linejoin="round"/>
<path d="M375.613 377.354C375.289 376.079 374.952 374.805 374.579 373.507C370.529 359.72 364.326 346.799 359.398 333.324C356.994 326.641 354.518 319.934 352.318 313.155C351.357 310.174 349.349 306.087 349.614 302.854C350.083 297.252 352.27 294.836 355.756 289.86C359.242 284.884 385.938 271.481 385.938 271.481C385.938 271.481 393.15 271.097 396.516 275.436C399.882 279.775 430.809 354.768 432.576 364.973C434.343 375.178 428.441 397.667 411.325 404.447C400.17 408.87 389.136 399.915 382.128 392.102C378.221 387.727 376.995 382.69 375.613 377.354Z" fill="white"/>
<path d="M432.588 364.973C432.54 364.693 432.468 364.368 432.371 364L380.265 389.65C380.827 390.521 381.453 391.349 382.14 392.126C386.106 396.55 391.371 401.346 397.213 403.858L427.66 388.893C432.155 380.323 433.585 370.683 432.588 364.973Z" fill="#D0D0D0"/>
<path d="M401.12 284.836L350.984 309.501C351.465 310.799 351.958 312.049 352.318 313.107C354.013 318.336 355.852 323.516 357.727 328.733L409.125 303.491C406.132 296.279 403.331 289.788 401.12 284.836Z" fill="#D0D0D0"/>
<path d="M425.003 342.904C422.767 337.075 420.195 330.596 417.575 324.021L365.769 349.491C368.329 355.766 370.853 362.052 372.981 368.483L425.003 342.904Z" fill="#D0D0D0"/>
<g opacity="0.7">
<path d="M432.588 364.973C432.54 364.693 432.468 364.368 432.372 364L380.265 389.65C380.827 390.521 381.454 391.349 382.14 392.126C386.107 396.55 391.371 401.346 397.213 403.858L427.66 388.893C432.155 380.323 433.586 370.683 432.588 364.973Z" fill="white"/>
<path d="M401.12 284.836L350.984 309.501C351.465 310.799 351.958 312.049 352.318 313.107C354.013 318.336 355.852 323.516 357.727 328.733L409.125 303.491C406.132 296.279 403.331 289.788 401.12 284.836Z" fill="white"/>
<path d="M425.003 342.904C422.768 337.075 420.195 330.596 417.575 324.021L365.769 349.491C368.329 355.766 370.853 362.052 372.981 368.483L425.003 342.904Z" fill="white"/>
</g>
<path d="M375.613 377.354C375.289 376.079 374.952 374.805 374.579 373.507C370.529 359.72 364.326 346.799 359.398 333.324C356.994 326.641 354.518 319.934 352.318 313.155C351.357 310.174 349.349 306.087 349.614 302.854C350.083 297.252 352.27 294.836 355.756 289.86C359.242 284.884 385.938 271.481 385.938 271.481C385.938 271.481 393.15 271.097 396.516 275.436C399.882 279.775 430.809 354.768 432.576 364.973C434.343 375.178 428.441 397.667 411.325 404.447C400.17 408.87 389.136 399.915 382.128 392.102C378.221 387.727 376.995 382.69 375.613 377.354Z" stroke="#263238" stroke-miterlimit="10"/>
<path d="M176.694 317.927C176.694 317.927 237.599 277.467 240.4 272.659C243.201 267.851 242.804 264.642 242.804 258.632C242.804 252.622 228.777 226.575 228.777 226.575C228.777 226.575 223.175 222.175 217.959 223.774C212.742 225.373 145.045 268.645 137.833 275.857C130.621 283.069 122.604 304.705 132.617 319.934C142.629 335.163 170.684 324.345 170.684 324.345" fill="white"/>
<path d="M170.143 253.235C164.133 257.154 158.424 260.976 153.448 264.366L182.452 314.081C186.575 311.316 192.537 307.313 199.087 302.842L170.143 253.235Z" fill="#D0D0D0"/>
<path d="M135.982 278.008C130.65 285.604 127.834 294.68 127.929 303.959L141.079 326.485C148.591 329.262 158.003 327.843 164.169 326.317L135.982 278.008Z" fill="#D0D0D0"/>
<path d="M205.626 230.734C200.818 233.691 194.88 237.357 188.618 241.336L217.226 290.353C223.5 285.954 229.306 281.795 233.549 278.573L205.626 230.734Z" fill="#D0D0D0"/>
<g opacity="0.7">
<path d="M170.143 253.235C164.133 257.154 158.424 260.976 153.447 264.366L182.452 314.081C186.574 311.316 192.536 307.313 199.087 302.842L170.143 253.235Z" fill="white"/>
<path d="M135.982 278.009C130.65 285.604 127.834 294.68 127.929 303.96L141.079 326.485C148.591 329.262 158.003 327.844 164.169 326.317L135.982 278.009Z" fill="white"/>
<path d="M205.626 230.734C200.818 233.691 194.88 237.357 188.618 241.336L217.226 290.353C223.5 285.954 229.306 281.795 233.549 278.573L205.626 230.734Z" fill="white"/>
</g>
<path d="M176.694 317.927C176.694 317.927 237.599 277.467 240.4 272.659C243.201 267.851 242.804 264.642 242.804 258.632C242.804 252.622 228.777 226.575 228.777 226.575C228.777 226.575 223.175 222.175 217.959 223.774C212.742 225.373 145.045 268.645 137.833 275.857C130.621 283.069 122.604 304.705 132.617 319.934C142.629 335.163 170.684 324.345 170.684 324.345" stroke="#263238" stroke-miterlimit="10"/>
</svg>
